<?xml version="1.0" standalone="no"?>
<!DOCTYPE svg PUBLIC "-//W3C//DTD SVG 1.1//EN" "http://www.w3.org/Graphics/SVG/1.1/DTD/svg11.dtd" >
<svg>
<metadata>
Created by FontForge 20090622 at Thu Aug 15 12:37:45 2019
 By deploy user
KreepTown &#194;&#169; Chequered Ink Ltd. 2018. All Rights Reserved
</metadata>
<defs>
<font id="KreepTown" horiz-adv-x="1210" >
  <font-face 
    font-family="KreepTown"
    font-weight="400"
    font-stretch="normal"
    units-per-em="2048"
    panose-1="2 0 5 0 0 0 0 0 0 0"
    ascent="1638"
    descent="-410"
    x-height="1414"
    cap-height="1432"
    bbox="-247 -590 1816 1880"
    underline-thickness="150"
    underline-position="-142"
    unicode-range="U+001D-U+20AC"
  />
<missing-glyph horiz-adv-x="1318" 
d="M916 1523q29 0 68 -46h19q88 0 88 -122q45 -634 68 -1067q58 0 68 -80q-11 -76 -72 -76h-15v-12q0 -50 -46 -83q8 -27 8 -42q0 -55 -61 -76l-866 -19q-49 0 -65 72q0 30 19 65q-3 53 -7 53q-49 0 -65 72q0 57 57 88q-53 823 -61 858q-19 18 -19 46q0 24 12 53
q-46 29 -46 69q8 83 68 83q14 12 27 12v3q-11 37 -11 46q0 84 102 84q65 3 730 19zM429 1089v-3q0 -32 54 -814l326 8q-15 329 -53 817q-44 0 -327 -8z" />
    <glyph glyph-name=".notdef" horiz-adv-x="1318" 
d="M916 1523q29 0 68 -46h19q88 0 88 -122q45 -634 68 -1067q58 0 68 -80q-11 -76 -72 -76h-15v-12q0 -50 -46 -83q8 -27 8 -42q0 -55 -61 -76l-866 -19q-49 0 -65 72q0 30 19 65q-3 53 -7 53q-49 0 -65 72q0 57 57 88q-53 823 -61 858q-19 18 -19 46q0 24 12 53
q-46 29 -46 69q8 83 68 83q14 12 27 12v3q-11 37 -11 46q0 84 102 84q65 3 730 19zM429 1089v-3q0 -32 54 -814l326 8q-15 329 -53 817q-44 0 -327 -8z" />
    <glyph glyph-name=".null" horiz-adv-x="0" 
 />
    <glyph glyph-name=".null" horiz-adv-x="0" 
 />
    <glyph glyph-name="nonmarkingreturn" horiz-adv-x="508" 
 />
    <glyph glyph-name="space" unicode=" " horiz-adv-x="508" 
 />
    <glyph glyph-name="space" unicode="&#xa0;" horiz-adv-x="508" 
 />
    <glyph glyph-name="exclam" unicode="!" horiz-adv-x="510" 
d="M220 1467h8q19 0 76 -30q49 -20 49 -60v-68q44 -39 50 -84v-74q0 -369 -50 -659q-21 -77 -87 -77q-28 -34 -65 -34h-7q-72 10 -72 64q0 19 15 81q0 2 -4 43q-43 -13 -53 -13h-8q-72 10 -72 64q57 298 57 699v44q0 67 99 67q23 37 64 37zM141 318q53 0 72 -53h15
q84 0 84 -83v-57q0 -38 -23 -65v-87q0 -67 -72 -92q0 -9 -46 -11q-72 13 -72 72v53h-27q-72 13 -72 73v68q0 59 57 133q39 49 84 49z" />
    <glyph glyph-name="quotedbl" unicode="&#x22;" horiz-adv-x="989" 
d="M156 1431q66 -10 72 -19h11q23 19 54 19q72 0 72 -103q4 -84 7 -357q0 -56 -79 -65h-12v-42q0 -79 -76 -79q-11 0 -49 11q-7 -76 -76 -76q-72 0 -72 103q-4 84 -8 357q19 51 19 53v91q12 91 91 91q11 16 46 16zM656 1431q66 -10 72 -19h11q23 19 54 19q72 0 72 -103
q4 -84 7 -357q0 -56 -79 -65h-12v-42q0 -79 -76 -79q-11 0 -49 11q-7 -76 -76 -76q-72 0 -72 103q-4 84 -8 357q19 51 19 53v91q12 91 91 91q11 16 46 16z" />
    <glyph glyph-name="numbersign" unicode="#" horiz-adv-x="1623" 
d="M464 1497h7q72 -13 72 -72v-42h19q28 0 141 -87q14 -18 23 -118q0 -8 -4 -84h4q190 12 197 12l4 19q0 262 84 262h38q36 0 68 -42h8q26 23 53 23h8q72 -13 72 -72v-12q-15 -105 -15 -167q0 -2 34 -38q19 0 190 8q49 0 64 -72v-8q0 -23 -19 -49q12 -36 12 -46v-8
q0 -49 -69 -79q0 -57 -193 -57h-23l-4 -8v-53q0 -29 34 -38q8 0 34 -31q20 0 190 8q49 0 65 -72v-8q0 -23 -19 -49q11 -36 11 -46v-7q0 -49 -68 -80q0 -57 -194 -57h-23q-7 -4 -11 -4v-34q0 -37 -46 -72q4 -97 4 -130q0 -50 -72 -64h-8q-15 0 -68 26q-84 0 -84 126v53
q0 8 -38 65v15q-27 -4 -254 -15q4 -121 4 -179v-42q-12 -72 -73 -72h-7q-72 11 -72 72v27q0 6 -16 15q-72 -4 -72 -30q-26 -16 -45 -16h-8q-72 12 -72 73v91l-4 38h-46q-72 11 -72 72v8q0 9 12 45v4q-45 -4 -65 -4h-15q-61 0 -76 80q-34 24 -34 61v7q0 76 133 76
q101 8 152 8q7 4 11 4q4 44 4 64v19q-38 -3 -57 -3h-19q-72 11 -72 72v7q0 10 11 46v4q-45 -4 -65 -4h-15q-61 0 -76 80q-34 24 -34 61v7q0 76 133 76q174 12 213 12v3q0 121 34 244q7 171 57 171q0 6 27 7zM707 737q-8 -4 -12 -4q-3 -66 -3 -83h3q157 11 217 11l15 12l-4 7
v69q-160 -12 -216 -12z" />
    <glyph glyph-name="dollar" unicode="$" 
d="M403 1606h45q35 -6 35 -35h19q68 0 68 -121q4 0 8 -19q102 11 125 11h106q156 0 190 -30q23 -29 23 -53v-12q0 -63 -87 -76q0 -13 -46 -38q31 -32 31 -61v-11q0 -63 -80 -72q-52 4 -65 4q-16 -23 -61 -23q-33 4 -76 4q18 -152 35 -152q298 0 383 -118q57 -73 57 -213
q0 -177 -114 -293q0 -53 -79 -159q-46 -46 -107 -88v-22q0 -8 -7 -38q7 -54 7 -73q0 -44 -95 -68l-23 4q-20 -4 -34 -4q-99 11 -99 42q-7 20 -19 99q-51 -4 -76 -4h-102q-138 0 -255 42q-34 24 -34 68q0 30 15 46q-19 26 -19 57q9 76 76 76h12q55 -8 60 -8h8q0 103 99 103
q2 0 57 7h4q5 0 87 -15h4q-30 194 -38 194q-21 4 -34 4h-8q-280 0 -346 102q-49 70 -49 114q-4 154 -4 205q0 75 68 179q86 99 175 133q25 0 69 46q-8 45 -8 68q0 36 57 53q0 13 15 34q-7 54 -7 73q5 38 34 38z" />
    <glyph glyph-name="percent" unicode="%" horiz-adv-x="1496" 
d="M927 1471h8q72 -13 72 -72v-12q0 -14 -46 -114q11 0 42 -7q38 95 88 95q104 0 159 -73q8 -13 8 -30v-11q0 -18 -145 -316q-49 -95 -49 -106v-8l38 4h8q72 -13 72 -72v-8q0 -18 -23 -61q17 -9 42 -60h19q0 32 64 45h8q76 0 76 -121v-42q23 -66 23 -118v-30
q0 -230 -194 -297q-43 -7 -61 -7h-49q-70 0 -148 72h-8q-43 -8 -61 -8h-49q-29 0 -91 23q-76 -171 -107 -171q-24 -76 -80 -76h-7q-72 11 -72 72v8h-4q-32 -57 -76 -57h-8q-72 11 -72 72v11q0 14 46 114q-76 9 -76 73v11q0 19 163 353q4 7 4 16q-58 4 -133 72h-8
q-43 -8 -61 -8h-49q-128 0 -182 156q-8 26 -8 46v45q0 104 61 236q83 239 209 239h7q29 0 107 -49q46 34 87 34h8q72 -13 72 -72v-8q0 -18 -23 -61q17 -9 42 -60h19q0 32 65 45h7q27 0 57 -26h12q139 307 159 307q20 12 38 12z" />
    <glyph glyph-name="ampersand" unicode="&#x26;" horiz-adv-x="1258" 
d="M502 1451h53q121 0 235 -160q57 -94 57 -186v-50q0 -20 -26 -133q0 -135 -88 -224q-7 -9 -7 -15q0 -11 76 -72q63 53 106 53l19 -4q120 103 152 103h8q63 0 72 -76q0 -7 -15 -61q0 -51 -84 -106q-4 -8 -4 -12q38 -25 38 -68q0 -32 -19 -50q53 -53 54 -72v-15
q0 -64 -76 -72v-12q49 -26 49 -76q0 -42 -53 -76q0 -60 -80 -68q-37 0 -201 141l-19 3q-143 -100 -255 -136q-75 -27 -106 -27h-54q-235 8 -235 42q-99 80 -99 190v57q0 13 11 83v57q0 148 209 316q16 0 16 7q0 11 -99 194q-27 72 -27 156q0 222 179 304q70 46 144 46
q0 11 69 19zM445 1071v-4q0 -16 53 -118h7q23 28 23 72v12q-39 38 -80 38h-3zM369 402v-4q9 -23 53 -23q64 8 64 19v4q0 5 -57 57q-42 -25 -60 -53z" />
    <glyph glyph-name="quotesingle" unicode="'" horiz-adv-x="458" 
d="M156 1431q66 -10 72 -19h11q23 19 54 19q72 0 72 -103q4 -84 7 -357q0 -56 -79 -65h-12v-42q0 -79 -76 -79q-11 0 -49 11q-7 -76 -76 -76q-72 0 -72 103q-4 84 -8 357q19 51 19 53v91q12 91 91 91q11 16 46 16z" />
    <glyph glyph-name="parenleft" unicode="(" horiz-adv-x="799" 
d="M623 1573q63 0 72 -76q0 -42 -60 -84l-4 -7q23 -31 23 -61q0 -45 -73 -91q-182 -216 -182 -396v-83q0 -381 228 -608q4 -21 4 -31q0 -64 -76 -72v-11q34 -31 34 -69q0 -64 -76 -72q0 -65 -80 -72q-43 0 -159 137q-57 47 -149 239q-125 219 -125 498v103q0 350 243 638
q78 87 126 87h3q30 0 73 -38q6 0 15 -7q11 0 68 45q13 0 76 31h19z" />
    <glyph glyph-name="parenright" unicode=")" horiz-adv-x="778" 
d="M72 -130q-61 0 -72 72v8q0 39 57 83q228 243 228 620q0 337 -182 551q-80 62 -80 102v8q0 61 72 72h42l26 -4q16 20 16 23l-4 23v8q0 72 91 72q47 30 68 30h12q57 0 159 -137q171 -241 171 -577v-19q0 -250 -68 -411q-56 -176 -144 -315q-48 -70 -149 -156l-102 -19h-34
q-41 -34 -69 -34h-38z" />
    <glyph glyph-name="asterisk" unicode="*" horiz-adv-x="1258" 
d="M555 1424h7q71 0 107 -156q29 -72 34 -72q88 61 118 61h7q73 -13 73 -72v-8q0 -57 -137 -125l-8 -12v-7h12q82 57 102 57q133 0 133 -50q9 -7 15 -7q26 15 46 15h8q76 0 76 -114q0 -63 -152 -141l-107 -72q15 -43 15 -53v-8q0 -10 -15 -53q19 -26 19 -49v-27
q57 -54 57 -91v-8q-11 -72 -72 -72h-8q-23 0 -49 19h-23q-22 0 -57 23q-14 -8 -30 -8h-8q-35 0 -152 103l-7 4q-164 -126 -198 -126h-8q-23 0 -49 19h-23q-22 0 -57 23q-14 -8 -30 -8h-8q-72 12 -72 73v7q0 28 34 69q-4 20 -4 34q0 40 76 99q0 32 88 98v4q-222 134 -240 152
q-11 29 -11 42v8q0 28 27 57v7q-84 48 -84 95v8q11 72 72 72h8q33 -4 182 -95l4 8q-30 71 -30 102v4q11 72 72 72h7q54 0 76 -68q9 -23 16 -23q0 87 76 87v31q11 72 72 72z" />
    <glyph glyph-name="plus" unicode="+" horiz-adv-x="1421" 
d="M669 1346h7q53 0 76 -69q46 -28 57 -79v-76q16 -43 16 -54v-186h349q148 0 148 -57q4 -6 4 -19v-7q0 -38 -38 -65q38 -37 38 -68v-8q-11 -72 -72 -72h-194q-37 -8 -42 -8h-197v-4q-4 -403 -4 -459q0 -50 -72 -65h-8q-72 11 -72 72v42q-27 0 -61 34l-19 -4h-11
q-72 12 -72 73v163q0 56 3 152h-433q-72 11 -72 72v8q0 63 95 83h57v4q-11 36 -11 46v7q0 76 102 76q0 7 27 8h235q4 175 4 266v61q12 72 72 72h16q0 44 72 61z" />
    <glyph glyph-name="comma" unicode="," horiz-adv-x="449" 
d="M171 296q53 0 72 -54h15q84 0 84 -79q-49 -445 -76 -445q-58 -38 -95 -38q-72 13 -72 72v15l4 38h-31q-62 0 -72 76q28 320 61 320q46 95 110 95z" />
    <glyph glyph-name="hyphen" unicode="-" horiz-adv-x="1409" 
d="M270 888q200 0 931 -4q125 0 125 -76v-8q0 -37 -38 -64q38 -37 38 -69v-7q-11 -72 -72 -72h-194q-4 0 -42 -8q-836 4 -953 4q-50 0 -65 72v8q0 63 95 83h57v4q-11 36 -11 46v7q0 76 102 76q0 7 27 8z" />
    <glyph glyph-name="hyphen" unicode="&#xad;" horiz-adv-x="1409" 
d="M270 888q200 0 931 -4q125 0 125 -76v-8q0 -37 -38 -64q38 -37 38 -69v-7q-11 -72 -72 -72h-194q-4 0 -42 -8q-836 4 -953 4q-50 0 -65 72v8q0 63 95 83h57v4q-11 36 -11 46v7q0 76 102 76q0 7 27 8z" />
    <glyph glyph-name="period" unicode="." horiz-adv-x="413" 
d="M141 328q53 0 72 -53h15q84 0 84 -83v-57q0 -38 -23 -65v-87q0 -67 -72 -92q0 -9 -46 -11q-72 13 -72 72v53h-27q-72 13 -72 73v68q0 59 57 133q39 49 84 49z" />
    <glyph glyph-name="slash" unicode="/" horiz-adv-x="772" 
d="M380 1527h8q51 0 72 -61h11q55 0 84 -84q15 -15 15 -41v-4q0 -23 -15 -69v-3h19q72 -13 72 -73v-3q0 -18 -80 -270q-92 -250 -178 -821q-19 -220 -61 -220q-25 -8 -34 -8h-8q-72 11 -72 72q4 48 4 57h-8q-27 -23 -53 -23h-8q-8 0 -102 23q-46 52 -46 80q52 467 122 726
q57 304 197 691q31 31 61 31z" />
    <glyph glyph-name="zero" unicode="0" horiz-adv-x="1234" 
d="M445 1453h34q95 0 95 -84v-3h26q20 0 46 -8q27 8 42 8q69 0 106 -88q49 0 80 -30q50 0 114 -186q131 -340 133 -513v-130q0 -125 -95 -231q-69 -68 -152 -88q-111 -110 -247 -110h-72q-348 0 -506 403q-48 189 -49 357v72q0 159 125 407q149 224 320 224zM350 746v-11
q0 -255 117 -361q68 -15 118 -15h12q174 0 174 136v42q0 136 -171 544q-3 5 -3 22q0 21 11 42q-11 31 -23 31q-28 0 -34 -57q-33 -38 -91 -38q-110 -170 -110 -335z" />
    <glyph glyph-name="one" unicode="1" horiz-adv-x="700" 
d="M513 1463q72 0 80 -110q11 -32 11 -42q-19 -1178 -30 -1178q-29 -34 -72 -34q-3 0 -23 4q-16 -21 -57 -50q0 -42 -72 -53q-73 13 -73 68q16 811 19 939h-19q-83 0 -83 91q-12 0 -12 42h-11q-61 -46 -99 -46q-63 0 -72 76q0 61 175 149q180 114 213 114q33 -4 41 -4
q49 34 84 34z" />
    <glyph glyph-name="two" unicode="2" horiz-adv-x="1279" 
d="M517 1459h102q128 0 206 -129q45 -12 106 -91q11 -14 27 -95q53 -43 53 -160q0 -200 -217 -593v-3q181 7 202 7q59 0 68 -76q0 -34 -34 -64q13 -27 140 -27q12 -10 12 -23v-91q0 -26 -69 -68q-61 -8 -566 -31q0 -11 -38 -11q-16 0 -34 7q-23 -3 -205 -11q-29 0 -69 42
h-19q-25 0 -72 23q-58 0 -68 76q0 67 80 72h3v11q-22 23 -22 57q0 76 121 76q65 0 65 34q252 367 308 570q19 66 19 95h-8q-113 -36 -156 -98q-39 -40 -72 -130q-28 -30 -65 -30q-65 0 -72 80q0 7 8 42h-4q-14 0 -34 3l-38 -3q-12 0 -31 7q-38 -34 -72 -34q-65 0 -72 80
q0 44 72 163q0 84 171 236q119 87 274 87z" />
    <glyph glyph-name="three" unicode="3" horiz-adv-x="1351" 
d="M612 1444h15q314 0 471 -388q38 -56 38 -155v-8q0 -25 -7 -53q96 -101 102 -186q7 0 12 -107q0 -186 -141 -315q-41 -106 -167 -179q-111 -53 -316 -53h-3q-316 8 -316 68q-6 0 -7 35q0 25 19 49v8q-46 37 -46 72q-15 10 -15 45q0 67 80 73q136 -23 239 -27
q246 0 308 152q7 11 15 72q-16 36 -99 61q-144 -15 -163 -15q-11 0 -34 11q-42 -15 -69 -15q-144 0 -144 34q-15 11 -15 46l3 34q-49 20 -49 72q0 39 53 80q0 70 202 87q167 0 167 76q-55 80 -114 80q-139 -30 -300 -114h-16q-47 0 -68 50h-4q-108 -50 -118 -50h-7
q-63 0 -72 76l3 34q-49 20 -49 73q0 43 65 87q0 34 155 99q238 91 392 91z" />
    <glyph glyph-name="four" unicode="4" horiz-adv-x="1321" 
d="M756 1482q56 0 76 -68q38 -36 38 -76q43 0 53 -73q0 -17 -26 -72v-505h114q78 -19 99 -19q102 0 102 -31q31 -33 31 -72q0 -65 -80 -72h-137q0 -6 4 -46q0 -60 -80 -68h-53v-300q-4 -80 -76 -80q-72 13 -72 68q-40 -3 -46 -3q-36 0 -87 68q-61 0 -69 80v167l-26 4h-373
q-83 0 -83 87q-27 16 -27 57q8 41 8 53v23q-46 33 -46 76q0 39 99 148q473 599 520 643q15 7 42 7h23q14 0 34 -4q18 8 38 8zM494 692h53v68h-4q-49 -48 -49 -68z" />
    <glyph glyph-name="five" unicode="5" horiz-adv-x="1267" 
d="M220 1394h8q11 0 53 -15h612q72 -11 72 -72v-8q-14 -72 -64 -72v-11h68q37 0 68 -42q50 0 65 -72v-8q-11 -72 -72 -72h-27q-26 -19 -49 -19h-509q3 -52 3 -72h38q133 30 278 30q240 0 361 -198q45 -80 45 -197l-3 -61q15 -35 15 -129v-4q0 -141 -171 -243
q-171 -99 -604 -99q-238 0 -282 34q-26 29 -26 57v8q0 28 26 57v7l-19 4h-34q-72 13 -72 72v8q11 72 72 72h69l110 27q31 0 213 -8q239 0 326 80q50 36 50 99v38q0 23 -141 38q-167 -27 -232 -27v-19q-11 -72 -72 -72h-7q-41 0 -61 38h-12q-29 -27 -57 -27h-7q-36 0 -69 42
q-48 0 -64 72q-4 30 -23 411q-49 24 -49 68v8q0 16 26 68q0 53 34 88q0 24 42 72q30 49 72 49z" />
    <glyph glyph-name="six" unicode="6" horiz-adv-x="1300" 
d="M809 1471h92q72 -13 72 -72v-12q0 -28 -31 -60v-4h38q73 -15 73 -69q0 -105 -42 -125q-47 0 -65 -30q0 -28 -68 -35h-50q-122 0 -235 -76q-42 -50 -42 -60q4 0 4 -4q51 11 258 23h53q133 0 221 -171q0 -31 72 -130q27 -76 27 -133v-60q0 -318 -194 -399
q-106 -84 -194 -84h-84q-159 0 -349 205q-61 80 -80 141h-11q-38 -31 -73 -31q-76 10 -76 76v4q0 7 8 42q-46 26 -46 76q0 7 8 42h-11q-84 0 -84 80q0 57 110 117l-4 38v126q0 181 130 361q96 107 205 156q138 60 323 60q0 7 45 8zM566 472v-8q75 -68 156 -80q84 65 84 148
v8q-103 0 -240 -68z" />
    <glyph glyph-name="seven" unicode="7" horiz-adv-x="1213" 
d="M1034 1422q72 -13 72 -72v-8q0 -16 -38 -140v-8q23 -29 23 -53v-8q0 -32 -149 -421q-216 -603 -247 -654q-35 -38 -76 -38q-76 9 -76 76v8q0 15 23 79q-4 8 -4 12h-7q-6 -1 -42 -99q-28 -38 -72 -38q-76 9 -76 76v8q15 60 15 72q-61 17 -61 83q0 15 262 734v7
q-38 -3 -57 -3q-99 0 -307 -4q-43 0 -65 53h-38q-59 0 -80 49q-19 43 -19 65q0 7 8 42q-23 31 -23 91q15 72 68 72l658 12q69 -31 87 -31l42 -45q21 57 84 57l26 -4q19 30 69 30z" />
    <glyph glyph-name="eight" unicode="8" horiz-adv-x="1240" 
d="M524 1457q43 0 65 -69q57 -19 57 -68v-8q0 -59 -84 -72l-3 -7q87 0 87 -69v-7q0 -67 -129 -84q-115 -47 -171 -144v-4q61 -46 232 -46q58 0 140 57q23 50 23 69q-42 107 -42 117q0 9 4 42l-30 114v8q0 72 125 72h23q31 0 72 -72q49 0 110 -228q8 -38 8 -69v-19
q0 -54 -4 -79q4 -33 4 -84v-19q0 -53 -19 -99q144 -121 144 -254v-19q0 -46 -42 -107q12 -48 12 -83v-19q0 -140 -232 -206q-73 -11 -156 -11q-197 0 -380 49q-95 0 -251 88q-79 76 -79 129v57q0 5 -8 42v45q0 112 198 247q-92 94 -92 99q-30 42 -41 186q-19 53 -19 84v34
q0 199 235 354q89 53 243 53zM456 393v-12q147 -38 300 -38q-5 44 -121 99q-62 0 -179 -49z" />
    <glyph glyph-name="nine" unicode="9" horiz-adv-x="1300" 
d="M433 1471h84q113 0 266 -122q159 -158 159 -216q10 -8 16 -8q41 31 76 31q76 -10 76 -76v-4q0 -37 -42 -76h4q27 7 41 7q76 -12 76 -68q0 -122 -41 -122q-68 -47 -69 -53v-87q0 -419 -319 -585q-173 -114 -293 -114q0 -8 -45 -8h-91q-73 13 -73 72v12q0 7 8 38
q-46 28 -46 68v11q0 8 8 38h-23q-72 13 -72 73v11q0 63 80 72h53q105 0 251 76q71 52 80 72v8h-4q-70 -27 -175 -27h-53q-130 0 -217 164q-27 122 -61 148q-87 81 -87 213v95q0 246 232 334q47 12 64 12h61q5 0 76 11zM372 920v-8q2 -7 8 -7h4q199 59 243 99q-81 60 -156 60
h-26q-49 0 -65 -79q-8 -31 -8 -65z" />
    <glyph glyph-name="colon" unicode=":" horiz-adv-x="422" 
d="M141 328q53 0 72 -53h15q84 0 84 -83v-57q0 -38 -23 -65v-87q0 -67 -72 -92q0 -9 -46 -11q-72 13 -72 72v53h-27q-72 13 -72 73v68q0 59 57 133q39 49 84 49zM141 1128q53 0 72 -53h15q84 0 84 -83v-57q0 -38 -23 -65v-87q0 -67 -72 -92q0 -9 -46 -11q-72 13 -72 72v53
h-27q-72 13 -72 73v68q0 59 57 133q39 49 84 49z" />
    <glyph glyph-name="semicolon" unicode=";" horiz-adv-x="458" 
d="M171 296q53 0 72 -54h15q84 0 84 -79q-49 -445 -76 -445q-58 -38 -95 -38q-72 13 -72 72v15l4 38h-31q-62 0 -72 76q28 320 61 320q46 95 110 95zM171 1128q53 0 72 -53h15q84 0 84 -83v-57q0 -38 -23 -65v-87q0 -67 -72 -92q0 -9 -46 -11q-72 13 -72 72v53h-27
q-72 13 -72 73v68q0 59 57 133q39 49 84 49z" />
    <glyph glyph-name="semicolon" unicode="&#x37e;" horiz-adv-x="458" 
d="M171 296q53 0 72 -54h15q84 0 84 -79q-49 -445 -76 -445q-58 -38 -95 -38q-72 13 -72 72v15l4 38h-31q-62 0 -72 76q28 320 61 320q46 95 110 95zM171 1128q53 0 72 -53h15q84 0 84 -83v-57q0 -38 -23 -65v-87q0 -67 -72 -92q0 -9 -46 -11q-72 13 -72 72v53h-27
q-72 13 -72 73v68q0 59 57 133q39 49 84 49z" />
    <glyph glyph-name="less" unicode="&#x3c;" horiz-adv-x="983" 
d="M741 1283q80 0 80 -99q12 0 15 -45q0 -43 -65 -95v-4q80 0 80 -80q0 -51 -114 -133q-239 -206 -239 -209v-4q210 -125 213 -133q5 -26 117 -87q23 -27 23 -61q0 -36 -42 -76q-13 -57 -79 -57q-46 7 -434 239q-103 51 -125 84h-11q-18 -15 -54 -15q-72 13 -72 72v4l4 38
q-38 29 -38 64v12q0 63 80 72q20 0 118 95q22 15 342 289q21 0 155 118q20 11 46 11z" />
    <glyph glyph-name="equal" unicode="=" horiz-adv-x="1418" 
d="M270 1088q200 0 931 -4q125 0 125 -76v-8q0 -37 -38 -64q38 -37 38 -69v-7q-11 -72 -72 -72h-194q-4 0 -42 -8q-836 4 -953 4q-50 0 -65 72v8q0 63 95 83h57v4q-11 36 -11 46v7q0 76 102 76q0 7 27 8zM270 688q200 0 931 -4q125 0 125 -76v-8q0 -37 -38 -64
q38 -37 38 -69v-7q-11 -72 -72 -72h-194q-4 0 -42 -8q-836 4 -953 4q-50 0 -65 72v8q0 63 95 83h57v4q-11 36 -11 46v7q0 76 102 76q0 7 27 8z" />
    <glyph glyph-name="greater" unicode="&#x3e;" horiz-adv-x="962" 
d="M167 1241q45 -7 433 -240q55 -30 65 -30q29 34 76 34q63 0 72 -80q23 -50 23 -95q11 0 15 -38v-11q0 -28 -19 -46q15 -26 15 -45v-12q0 -46 -148 -159q-315 -278 -338 -278h-19q-76 14 -76 65h-8q-70 -65 -110 -65q0 -8 -42 -11q-76 9 -76 76v4q0 42 50 80l4 7
q-12 20 -12 46q0 50 118 137l251 216v8q-241 141 -259 156q-9 37 -45 60q-137 56 -137 126q0 80 118 80q0 12 49 15z" />
    <glyph glyph-name="question" unicode="?" horiz-adv-x="1204" 
d="M407 1440h148q276 0 395 -197q46 -27 137 -232q6 -26 6 -56q0 -71 -31 -170q-43 -143 -355 -244q-60 -26 -61 -78v-8q0 -50 -72 -65h-8q-37 0 -68 42q-35 -23 -57 -23h-8q-76 0 -87 105q-46 0 -53 110q-4 105 -4 133q0 99 300 106q156 92 156 167q-34 30 -88 38h-19
q-106 0 -368 -57q-26 0 -65 30q-51 -11 -68 -11q-76 0 -76 110q-7 0 -8 27v7q0 23 19 50v7q-72 12 -72 72v8q0 74 125 87q159 41 282 42zM461 328q53 0 72 -53h15q84 0 84 -83v-57q0 -38 -23 -65v-87q0 -67 -72 -92q0 -9 -46 -11q-72 13 -72 72v53h-27q-72 13 -72 73v68
q0 59 57 133q39 49 84 49z" />
    <glyph glyph-name="at" unicode="@" horiz-adv-x="1496" 
d="M764 1469q195 0 334 -179q43 -63 72 -152q83 -75 118 -198q19 -69 19 -91v-91q0 -142 -167 -266q-171 -91 -308 -91q-133 0 -133 76v23h-4q-79 -16 -133 -16q-60 21 -60 73v7q0 32 64 99q0 42 76 76q24 34 118 34q137 33 137 61q7 26 7 46v19q0 92 -76 190h-3
q-164 -52 -255 -202q-167 -244 -167 -456q0 -49 220 -99q48 -7 80 -7h38q187 0 384 121q25 23 53 23h8q72 -13 72 -72v-8q0 -34 -50 -79q8 -14 8 -31v-23q10 0 30 4q130 0 130 -49q7 0 7 -27v-7q0 -93 -327 -198q-122 -19 -155 -19h-65q-267 0 -429 103q-191 46 -304 174
q-103 142 -103 259v42q0 311 331 710q231 221 433 221z" />
    <glyph glyph-name="A" unicode="A" 
d="M536 1432q43 0 80 -53q88 0 106 -126q18 -87 53 -110q15 -18 175 -577h65q83 0 83 -80q0 -17 -15 -53q23 -18 23 -57q-9 -76 -76 -76q64 -225 72 -274q-9 -76 -76 -76h-8q-69 0 -95 137q-15 57 -22 57q-16 -4 -16 -19q8 -27 8 -46q-9 -76 -76 -76h-8q-74 0 -106 179
q-9 26 -15 26h-285q-19 -182 -91 -182h-16q-28 0 -60 30h-4q-26 -38 -76 -38q-72 13 -72 73q0 30 19 140q-19 29 -19 50v41q0 10 11 46h-23q-72 13 -72 72v12q0 63 80 72h76q125 697 137 729q19 26 64 46q55 68 99 68q0 53 80 65zM513 809q-8 -21 -46 -243h118v7
q-61 236 -72 236z" />
    <glyph glyph-name="B" unicode="B" horiz-adv-x="1354" 
d="M684 1419q404 0 494 -190q19 -64 19 -95q0 -167 -163 -273q-16 -12 -16 -16v-3q201 -170 221 -301q4 -25 4 -49v-49q0 -61 -35 -126q0 -109 -76 -178q-39 -68 -159 -103q-75 -23 -221 -23q-136 0 -262 19q-26 -42 -87 -42q0 -11 -65 -19q0 -8 -42 -11q-76 0 -76 122v30
q-72 24 -72 65q-53 38 -53 83q0 66 80 72h11q0 198 -38 213q-7 18 -7 38l3 27q-30 34 -30 68t34 65v19q0 24 12 53l-12 220q-7 0 -7 4l-8 -4h-27q-79 0 -79 76l3 27q-30 34 -30 68t34 65v19q0 87 122 87q176 38 357 38q47 -3 49 -3zM547 1077q8 -111 8 -163q4 -8 4 -12h3
q179 48 240 114q-88 61 -251 61h-4zM574 560l11 -190q99 -15 243 -15q23 0 23 46v11q0 112 -144 190h-4q-88 -30 -129 -42z" />
    <glyph glyph-name="C" unicode="C" horiz-adv-x="1399" 
d="M532 1421h34q66 0 202 -26q136 0 338 -84q33 -29 45 -84q46 -41 46 -76q0 -58 -53 -79v-19q-6 -84 -84 -84q-11 0 -178 57q-102 19 -149 19q-178 0 -277 -125q-38 -102 -53 -282q0 -213 87 -243l38 -19q128 0 414 99h12q43 0 68 -38q26 0 122 11q54 0 80 -60
q0 -28 49 -80l4 -27q0 -49 -53 -87q0 -76 -65 -99q-261 -95 -445 -95h-41q-256 0 -384 171q-92 54 -122 80q-167 131 -167 471v49q0 177 80 373q33 82 152 186q125 91 300 91z" />
    <glyph glyph-name="D" unicode="D" horiz-adv-x="1351" 
d="M521 1426h45q455 0 627 -349q42 -124 42 -251q0 -263 -103 -388l-148 -171q-118 -109 -273 -159q-89 -50 -198 -80l-46 -91q0 -17 -53 -27h-7q-24 0 -50 19h-30q-37 0 -72 46q-92 0 -92 114q0 54 -41 942h-50q-72 11 -72 72v8q0 42 38 61v11q-30 34 -34 80v7q0 71 121 84
q65 8 88 8q31 64 308 64zM475 1035l27 -661q227 0 349 243q15 51 15 68q-25 139 -95 217q-144 133 -296 133z" />
    <glyph glyph-name="E" unicode="E" horiz-adv-x="1128" 
d="M756 1395q48 0 88 -57h38q76 0 76 -122q0 -7 -8 -23q15 -26 15 -45v-8q0 -76 -133 -76q-103 0 -418 -11v-171q261 11 331 11q49 0 64 -72v-8q0 -41 -53 -76h46q72 -12 72 -72v-8q0 -37 -46 -72q0 -87 -98 -87q-16 -4 -316 -12v-186q309 -4 483 -4h30q76 0 76 -114
q11 0 15 -38v-7q0 -65 -87 -76q-23 -42 -65 -42h-167q-102 0 -308 4q-34 -23 -57 -23h-7q-14 0 -65 23h-64q-42 15 -152 23q-46 26 -46 68v8q0 37 46 72l3 45q-7 14 -7 31v984q0 4 -8 42v7q0 76 133 76q59 0 589 16z" />
    <glyph glyph-name="F" unicode="F" horiz-adv-x="1279" 
d="M1030 1430q43 0 72 -61q58 0 68 -76q0 -76 -121 -76q-23 0 -57 -23q-50 0 -50 -27q59 0 69 -76q0 -76 -122 -76q-318 -15 -433 -22l4 -46v-95h372q80 0 80 -80h19q76 0 103 -110v-4q0 -66 -88 -76q0 -95 -80 -95h-243q-58 0 -159 -4v-3q0 -76 3 -426q0 -58 -76 -68
q-68 12 -68 53h-4q-37 -12 -53 -12v-7q0 -80 -76 -80q-72 13 -72 65q-4 281 -4 448v27q0 8 -30 53q-23 50 -23 72q0 11 11 49q-45 23 -45 73q25 121 83 121q-4 82 -4 122v7q-41 36 -41 76q3 27 3 31q-59 0 -68 76q13 72 65 72v8q-27 23 -27 60q0 76 122 76q31 4 87 19
q16 0 42 -3q705 38 741 38z" />
    <glyph glyph-name="G" unicode="G" horiz-adv-x="1213" 
d="M513 1395q391 0 391 -80q8 0 8 -27v-7q0 -11 -15 -54q38 -27 38 -64v-8q0 -38 -50 -76q-19 -38 -57 -38l-45 4l-46 -4q-102 27 -148 27q-71 0 -171 -69q-54 -50 -87 -171q-35 -134 -35 -243v-26q0 -66 99 -149q49 -22 95 -30q79 0 270 68v4q0 312 38 312q16 19 46 19h15
q0 44 72 61h8q30 0 68 -38h23q72 -14 72 -69q-19 -547 -34 -547q-20 0 -27 -122q-26 -45 -68 -45h-8q-23 0 -49 19h-8q-31 -42 -68 -42h-8q-63 0 -72 76h-4q-122 -23 -194 -23h-95q-307 0 -406 262q-18 60 -38 202q-23 80 -23 163v69q0 318 182 516q141 130 331 130z" />
    <glyph glyph-name="H" unicode="H" horiz-adv-x="1315" 
d="M186 1447h8q72 -13 72 -72v-42h19q28 0 141 -87q14 -18 22 -118l-19 -243l354 23v3q0 456 53 456q16 19 46 19h30q36 0 68 -41h8q27 22 53 22h8q72 -12 72 -72v-11q-27 -204 -27 -403h54q72 -13 72 -72v-8q0 -23 -19 -49q11 -36 11 -46v-7q0 -49 -68 -80q-4 -16 -38 -46
q11 -255 11 -292q0 -27 -45 -65q3 -97 3 -129q0 -50 -72 -65h-7q-16 0 -69 27q-83 0 -83 125v53q0 10 -35 57q-7 51 -15 263h-4l-376 -23l-4 -46v-64q0 -151 4 -403q-21 -61 -72 -61h-8q-72 11 -72 72v27q0 6 -15 15q-72 -4 -72 -30q-26 -16 -46 -16h-7q-52 0 -73 61
q-3 202 -3 319v107q0 67 3 167q-13 47 -38 68q-11 20 -11 38v8q0 40 57 80q22 387 46 387q0 190 68 190q0 4 15 4z" />
    <glyph glyph-name="I" unicode="I" horiz-adv-x="537" 
d="M99 1432h11q76 -15 76 -76v-12h34q23 0 73 -34h3q27 19 50 19h11q76 -16 76 -72q-11 -235 -11 -350v-292q0 -195 15 -415q0 -51 -76 -68h-23q0 -11 4 -76q0 -51 -76 -68h-11q-30 0 -57 26q-64 -34 -95 -34h-12q-73 0 -83 110q-8 260 -8 335v368q13 608 38 608
q31 31 61 31z" />
    <glyph glyph-name="J" unicode="J" horiz-adv-x="1137" 
d="M684 1441h11q65 0 95 -114q68 0 92 -69q144 -458 144 -707v-98q0 -143 -95 -285q-117 -124 -228 -152q-63 -16 -84 -16h-79q-14 0 -35 4q-76 -33 -129 -34h-76q-156 0 -285 198q-15 34 -15 60v8q0 47 53 72q-4 38 -4 57q0 56 76 72h27l-4 38v8q15 76 76 76h12
q54 0 102 -106q35 -10 88 -61q30 -12 57 -12q69 0 110 35v41q0 237 -133 639v23q0 46 53 72q-4 38 -4 57q0 56 76 72h27l-4 38v8q15 76 76 76z" />
    <glyph glyph-name="K" unicode="K" horiz-adv-x="1285" 
d="M258 1422h38q126 -18 126 -102v-69q0 -71 -4 -209h8q394 283 471 320q15 3 26 3q24 0 69 -30h4q45 38 87 38q66 0 76 -80q0 -41 -46 -76v-15q0 -66 -83 -103q-13 -48 -53 -72q-34 -11 -168 -114q0 -12 187 -300q182 -273 182 -304v-8q-14 -76 -65 -76q42 -82 42 -87v-15
q0 -76 -91 -76q0 -11 -38 -15h-4q-13 0 -34 3q-38 -38 -68 -38h-12q-54 0 -133 149q-307 477 -330 509h-4q-27 -14 -27 -27q0 -99 -4 -410q0 -19 -30 -61q0 -32 -27 -61v-102q-7 -84 -68 -84h-15q-72 13 -72 72v160h-42v-129q-8 -84 -69 -84h-15q-72 16 -72 65l11 1128
q18 61 84 61h8q3 0 3 -4q8 4 12 4v141q0 57 83 79q16 19 57 19z" />
    <glyph glyph-name="L" unicode="L" horiz-adv-x="1321" 
d="M281 1416q34 0 53 -23l35 4q76 -9 76 -76v-175q22 -26 22 -64v-376q0 -114 -3 -312q108 -15 418 -42q46 15 60 15q61 -3 73 -3q89 26 110 26h4q83 0 83 -80q0 -69 -114 -91q-5 -14 -53 -38q0 -19 -27 -72q0 -66 -178 -91q0 -7 -122 -15q-243 13 -243 22q-7 -3 -11 -3v-38
q0 -84 -84 -84q-35 0 -76 49q-18 0 -49 31q-27 -8 -46 -8q-72 13 -72 72v16q-88 12 -88 76v11q0 23 19 49v12q-53 0 -68 72v11q0 63 80 73q48 22 57 22q4 407 4 597v182q0 39 60 88v91q0 63 80 72z" />
    <glyph glyph-name="M" unicode="M" horiz-adv-x="1704" 
d="M1269 1452h8q46 0 118 -79q64 -45 64 -114q129 -1007 141 -1121q0 -55 -72 -69h-8q-31 0 -61 31q-7 -4 -11 -4q7 -59 7 -88q0 -54 -72 -68h-7q-24 0 -50 19h-26q-84 0 -84 163q-8 31 -84 631h-3q-138 -197 -171 -228q-25 -7 -35 -7h-7q-5 0 -42 7q-67 -38 -87 -38
q-14 0 -35 4q-35 -27 -60 -27h-8q-56 0 -141 152q-44 61 -49 61h-4q-102 -594 -118 -623q-30 -30 -60 -30h-8q-4 0 -42 7q-67 -38 -87 -38q-14 0 -34 4q-36 -27 -61 -27h-8q-63 0 -72 76q19 174 110 684q103 559 114 601q28 38 65 38h7q48 0 111 -103h7q17 76 76 76h8
q53 0 121 -125q174 -251 179 -251h4q250 356 273 384q30 11 42 11h8q44 0 72 -53v-57h4q7 0 7 11q-11 86 -11 126q0 50 72 64z" />
    <glyph glyph-name="N" unicode="N" horiz-adv-x="1164" 
d="M920 1477h7q72 -12 72 -72v-84q44 -29 50 -60l11 -1205q-21 -61 -72 -61h-8q-23 0 -49 19h-4q-33 -34 -64 -34h-8q-72 11 -72 72v50q-410 634 -449 684h-3q0 -7 3 -46l16 -616q-21 -75 -35 -95q-48 -45 -79 -45h-8q-30 0 -61 30h-7q-27 -19 -50 -19h-7q-73 0 -73 107
q-3 38 -30 1064q7 31 15 34l-4 45v61q12 72 73 72q27 38 64 38h8q72 -12 72 -72v-38q91 -23 91 -83v-27h8q29 27 57 27h7q55 0 118 -126q201 -307 243 -365h4q-4 66 -4 107q0 177 -3 555q0 47 76 60q26 0 95 23z" />
    <glyph glyph-name="O" unicode="O" horiz-adv-x="1315" 
d="M361 1414q67 0 76 -92q23 -12 23 -15q39 32 76 46q21 57 76 57q56 -3 178 -65q139 0 316 -175q110 -159 110 -288v-118q0 -97 -61 -285q-101 -235 -289 -331q-63 -18 -171 -99q-111 -49 -171 -49h-53q-264 0 -395 308q-76 121 -76 311v99q0 235 91 433q16 60 205 244
q34 19 65 19zM395 684v-38q0 -228 110 -327q83 0 194 95q118 202 118 350q4 0 4 34v57q0 132 -110 182q-39 31 -141 61q-34 32 -34 61h-4q-137 -163 -137 -475z" />
    <glyph glyph-name="P" unicode="P" horiz-adv-x="1300" 
d="M243 1433h8q36 0 68 -42q136 23 194 23h76q176 0 331 -103q132 -45 197 -171l57 -129q15 -23 15 -110v-30q0 -132 -174 -263q-125 -76 -289 -121l-285 -65v-281q-12 -72 -72 -72h-8q-28 0 -57 26h-11q-27 -30 -27 -53q-11 -72 -72 -72h-8q-72 11 -72 72v152
q-15 43 -15 53v133q-99 27 -99 88v7q0 61 80 76v19q0 6 -57 42q-15 26 -15 46v7q0 67 91 76q4 132 4 190v422q0 76 125 76q0 4 15 4zM445 1038v-240q137 17 326 130q42 44 42 49q-43 80 -232 80h-7q-129 -7 -129 -19z" />
    <glyph glyph-name="Q" unicode="Q" horiz-adv-x="1321" 
d="M730 1422q41 0 129 -84h7q11 19 54 19q92 0 224 -239q68 -193 68 -335q4 0 4 -61v-98q0 -225 -110 -361q0 -54 49 -122q46 -61 46 -99q0 -64 -76 -72q-34 0 -65 34h-7q-27 -30 -65 -30q-56 0 -114 118l-8 3h-7q-108 -87 -247 -87h-53q-162 0 -335 190q-99 133 -175 331
q-49 159 -49 247v117q0 126 106 285q192 202 247 202q74 38 122 38q67 0 76 -91h4q102 21 102 60q29 35 73 35zM395 859v-57q11 -193 107 -365q91 -110 110 -110q83 7 83 27q-210 335 -224 376v15q15 72 61 72q-8 34 -8 46q0 64 76 72q50 0 84 -68q62 0 125 -129l8 -4h4
q0 155 -65 315q0 4 -99 91q-7 15 -7 42v8h-4q-52 -1 -148 -91q-36 0 -91 -168q-12 -45 -12 -72z" />
    <glyph glyph-name="R" unicode="R" horiz-adv-x="1243" 
d="M350 1424q301 0 501 -136q115 -38 194 -164q23 -42 34 -83q57 -85 57 -194v-15q0 -226 -201 -327v-8q0 -21 110 -296v-12q-13 -64 -46 -64v-8q12 -36 12 -45v-8q-12 -72 -72 -72h-12q-44 0 -91 72h-23q-36 0 -68 42q-63 0 -129 224q-6 1 -35 84q-79 -12 -110 -12h-49
l-8 -292q-21 -61 -72 -61h-8q-26 0 -57 26h-11q-27 -30 -27 -53q-11 -72 -72 -72h-7q-73 13 -73 72v8q0 56 4 152q-9 0 -19 38l19 824q-91 36 -91 80v15q0 61 80 76v19q0 4 -61 46q-11 29 -11 42v7q0 70 106 80q120 15 236 15zM437 1063l-8 -304q105 0 255 57q59 33 87 80v8
q-25 66 -79 99q-129 60 -255 60z" />
    <glyph glyph-name="S" unicode="S" horiz-adv-x="1216" 
d="M703 1425h106q156 0 190 -30q23 -29 23 -53v-12q0 -63 -87 -76q0 -13 -46 -38q31 -32 31 -60v-12q0 -63 -80 -72q-52 4 -65 4q-16 -23 -61 -23q-89 11 -163 11h-42q-125 -27 -125 -49v-11q0 -99 224 -99q335 0 410 -80q95 -75 95 -251q0 -177 -114 -292
q-39 -150 -148 -221q-135 -76 -273 -76q0 -11 -114 -15h-99q-138 0 -255 42q-34 24 -34 68q0 31 15 46q-19 26 -19 57q9 76 76 76h12q55 -8 60 -8h8q0 103 99 103q2 0 57 7h4q148 -30 235 -30h50q37 0 53 110q-34 84 -110 84q0 11 -373 26q-114 21 -167 69q-65 70 -72 140
q-4 154 -4 206q0 101 106 224q77 62 179 106q63 74 266 114q123 15 152 15z" />
    <glyph glyph-name="T" unicode="T" horiz-adv-x="1350" 
d="M555 1410h7q23 0 57 -23q344 23 494 23q79 -22 88 -118v-19q0 -19 -31 -53v-4q24 -34 80 -84q8 -24 8 -34v-7q-14 -73 -69 -73q-225 -7 -414 -19v-3l-15 -928q0 -47 -76 -60q-27 0 -61 -8h-7q-25 0 -54 23h-22q-59 0 -99 106q11 679 11 840h-4q-250 -30 -387 -30
q-61 20 -61 72v7q0 40 57 80q7 17 27 38v4q-34 33 -57 110v12q0 83 178 83q300 32 300 42q17 23 50 23z" />
    <glyph glyph-name="U" unicode="U" horiz-adv-x="1167" 
d="M996 1463q72 -16 72 -65q-20 -832 -46 -832q-42 -118 -42 -167q-30 -158 -117 -262q-123 -137 -251 -137h-61q-30 0 -122 19h-45q-190 0 -308 194q-76 156 -76 528v137q0 399 61 399q7 2 26 68q25 34 69 34q33 -3 42 -3q0 34 136 49q62 0 73 -76q-23 -231 -23 -369v-68
q0 -376 95 -471q67 -53 110 -53h4q35 0 64 163l27 718q11 30 49 57q10 91 76 91h8q34 -3 42 -3q0 34 137 49z" />
    <glyph glyph-name="V" unicode="V" horiz-adv-x="1303" 
d="M999 1431h8q72 -12 72 -73v-19h4q25 8 34 8h8q72 -11 72 -72v-4q0 -37 -285 -832q-116 -373 -156 -373q-15 -60 -114 -60h-7l-8 3q-8 0 -27 -30q-26 -19 -49 -19h-8q-72 13 -72 72v4q0 15 12 65v3h-23q-70 0 -110 164q-350 916 -350 942v12q11 72 72 72h8q10 0 53 -15
q42 35 42 45q0 51 80 69h7q68 0 110 -160q29 -18 198 -494q15 -42 23 -46h4q205 600 239 673q28 27 61 27q5 0 38 -4q23 42 64 42z" />
    <glyph glyph-name="W" unicode="W" horiz-adv-x="1617" 
d="M87 1424q32 0 61 -30q35 23 50 23q148 -1 171 -76q114 -450 121 -464h4q108 195 118 205q23 23 57 23q42 -7 45 -7q64 95 73 95q14 11 41 11q64 0 73 -76q0 -28 -42 -99q2 -61 15 -61h23q80 0 80 -76q0 -14 -19 -64q58 -113 83 -175h12q140 663 159 711q28 30 65 30
q28 0 72 -38q22 15 49 15q66 0 76 -87q27 -14 27 -61q0 -12 -8 -46l4 -53q-224 -1046 -243 -1094q-27 -31 -65 -31q-35 0 -72 42h-15q-61 0 -84 61q-47 27 -125 209q-101 205 -106 205q-141 -234 -141 -266q0 -43 -57 -87q-94 -198 -141 -198q-12 0 -76 -15q-58 0 -79 76
l-27 4q-27 -50 -76 -50q-65 0 -72 76q0 16 23 73q-16 19 -16 49q0 28 84 179q-186 724 -186 744l7 50q-30 122 -30 140q17 126 53 126q0 6 34 7z" />
    <glyph glyph-name="X" unicode="X" horiz-adv-x="1276" 
d="M1094 1440q64 0 73 -76q0 -46 -99 -114l-4 -7v-8q30 -28 30 -65q0 -47 -87 -102q-217 -201 -217 -228q327 -456 369 -669q0 -65 -76 -72q-23 0 -65 26q-34 8 -38 8q12 -36 12 -57q0 -65 -76 -72q-65 0 -103 125q-95 194 -235 403h-12q-46 -69 -159 -274l-130 -235
q-21 -23 -57 -23q-33 0 -57 27l-38 -4h-34q-80 0 -80 80q0 9 8 38q-19 25 -19 60q0 59 342 624q-30 53 -232 250l-4 35q0 11 12 49q-42 35 -42 76q12 72 68 72l-3 34q0 65 76 73q33 0 79 -42q44 0 240 -224q25 -27 30 -27q262 243 278 243q21 4 30 4q10 0 38 -8
q65 57 125 57q18 23 57 23z" />
    <glyph glyph-name="Y" unicode="Y" horiz-adv-x="1270" 
d="M1060 1435q84 -9 84 -76q0 -31 -53 -133v-4q83 -9 83 -76q0 -46 -99 -201q-479 -868 -535 -954q0 -22 -122 -34h-11l-23 3q-34 -30 -72 -30q-69 0 -76 84q0 22 49 117v31q-53 22 -53 76v4q3 41 152 292v8q-346 517 -354 539q-3 15 -3 31q0 25 15 45v19q-42 52 -42 95
q0 76 106 76q0 9 35 12q32 0 76 -31q52 0 159 -186q180 -270 186 -273h4q8 2 293 513q33 34 64 34q36 0 57 -19q9 0 65 38h15z" />
    <glyph glyph-name="Z" unicode="Z" horiz-adv-x="1499" 
d="M1193 1421q45 0 80 -42h34q84 -8 84 -76q-6 -83 -84 -83h-38q-20 0 -26 -15q30 -39 30 -65q0 -48 -76 -125l-494 -601v-7h369q129 -9 129 -38q9 -8 15 -8q107 0 129 -38q12 -29 12 -42q0 -42 -27 -64l4 -27q-6 -84 -84 -84h-152q-9 0 -53 -30q-15 -4 -30 -4h-593
q-59 -72 -103 -72h-4q-44 0 -76 53q-32 -26 -68 -26q-31 0 -80 45q-91 9 -91 88q0 38 84 129v4l-4 38q13 76 76 76h23q68 76 516 623v7l-482 -11q-57 0 -69 84q0 23 27 64v4q-13 0 -19 72q-12 0 -15 50q0 76 110 76q37 3 828 22q28 -4 42 -19q47 42 76 42z" />
    <glyph glyph-name="bracketleft" unicode="[" horiz-adv-x="810" 
d="M308 1576q44 0 76 -49h26q22 0 73 -19q76 -10 76 -76q25 -23 49 -57h23q83 0 83 -80q0 -64 -106 -103l-152 -11v-954h4q48 0 118 4q68 0 79 -84q0 -10 -7 -38q38 -37 38 -72v-4q0 -19 -23 -64q0 -80 -84 -80h-125q-28 -40 -65 -53q-19 -46 -64 -46q-122 0 -122 76v84
q0 7 -7 7h-4v-61q0 -83 -84 -83q-72 13 -72 72v1357q-30 32 -30 60v12q0 27 19 45q-27 39 -27 61v12q0 63 80 72q67 7 121 7q61 65 107 65z" />
    <glyph glyph-name="backslash" unicode="\" horiz-adv-x="772" 
d="M266 1527q30 0 61 -31q140 -387 197 -691q70 -259 122 -726q0 -28 -46 -80q-94 -23 -102 -23h-8q-26 0 -53 23h-8q0 -9 4 -57q0 -61 -72 -72h-8q-9 0 -34 8q-42 0 -61 220q-86 571 -178 821q-80 252 -80 270v3q0 60 72 73h19v3q-15 46 -15 69v4q0 26 15 41q29 84 84 84
h11q21 61 72 61h8z" />
    <glyph glyph-name="bracketright" unicode="]" horiz-adv-x="810" 
d="M407 1576q45 0 106 -65q54 0 122 -7q79 -9 79 -72v-12q0 -22 -26 -61q19 -18 19 -45v-12q0 -28 -31 -60v-1357q0 -59 -72 -72q-83 0 -83 83v61h-4q-8 0 -8 -7v-84q0 -76 -121 -76q-45 0 -65 46q-37 13 -65 53h-125q-84 0 -84 80q-22 45 -22 64v4q0 35 38 72q-8 28 -8 38
q11 84 80 84q70 -4 118 -4h3v954l-152 11q-106 39 -106 103q0 80 84 80h22q25 34 50 57q0 66 76 76q50 19 72 19h27q32 49 76 49z" />
    <glyph glyph-name="asciicircum" unicode="^" horiz-adv-x="1134" 
d="M353 1427h8q43 0 110 -72q8 -14 8 -31v-7q0 -13 -23 -69h4q58 0 72 50q31 64 80 64h7q73 -11 73 -72v-8q0 -19 -16 -45q24 -35 365 -433q8 -25 8 -35v-7q-23 -91 -84 -91v-4q8 -25 8 -34v-8q-13 -72 -72 -72h-8q-22 0 -72 34q-21 -30 -57 -30h-8q-47 0 -137 121
q-142 166 -152 171q-105 -174 -121 -194q-28 -11 -69 -15q-45 -110 -102 -110h-8q-67 0 -76 95q-34 24 -34 61v26q-57 34 -57 73q0 15 4 41q-4 27 -4 46q15 45 296 528q29 27 57 27z" />
    <glyph glyph-name="underscore" unicode="_" horiz-adv-x="1409" 
d="M270 298q200 0 931 -4q125 0 125 -76v-8q0 -37 -38 -64q38 -37 38 -69v-7q-11 -72 -72 -72h-194q-4 0 -42 -8q-836 4 -953 4q-50 0 -65 72v8q0 63 95 83h57v4q-11 36 -11 46v7q0 76 102 76q0 7 27 8z" />
    <glyph glyph-name="grave" unicode="`" horiz-adv-x="748" 
d="M308 1432h7q31 0 297 -148q23 -27 23 -53v-8q-13 -72 -73 -72h-26q0 -4 57 -38q23 -27 23 -53v-8q-13 -72 -73 -72h-7q-29 0 -327 152q-86 41 -110 76q-99 38 -99 95v8q0 50 99 106q6 4 19 4h7q14 0 107 -42h7q0 39 69 53z" />
    <glyph glyph-name="a" unicode="a" 
d="M536 1432q43 0 80 -53q88 0 106 -126q18 -87 53 -110q15 -18 175 -577h65q83 0 83 -80q0 -17 -15 -53q23 -18 23 -57q-9 -76 -76 -76q64 -225 72 -274q-9 -76 -76 -76h-8q-69 0 -95 137q-15 57 -22 57q-16 -4 -16 -19q8 -27 8 -46q-9 -76 -76 -76h-8q-74 0 -106 179
q-9 26 -15 26h-285q-19 -182 -91 -182h-16q-28 0 -60 30h-4q-26 -38 -76 -38q-72 13 -72 73q0 30 19 140q-19 29 -19 50v41q0 10 11 46h-23q-72 13 -72 72v12q0 63 80 72h76q125 697 137 729q19 26 64 46q55 68 99 68q0 53 80 65zM513 809q-8 -21 -46 -243h118v7
q-61 236 -72 236z" />
    <glyph glyph-name="b" unicode="b" horiz-adv-x="1354" 
d="M684 1419q404 0 494 -190q19 -64 19 -95q0 -167 -163 -273q-16 -12 -16 -16v-3q201 -170 221 -301q4 -25 4 -49v-49q0 -61 -35 -126q0 -109 -76 -178q-39 -68 -159 -103q-75 -23 -221 -23q-136 0 -262 19q-26 -42 -87 -42q0 -11 -65 -19q0 -8 -42 -11q-76 0 -76 122v30
q-72 24 -72 65q-53 38 -53 83q0 66 80 72h11q0 198 -38 213q-7 18 -7 38l3 27q-30 34 -30 68t34 65v19q0 24 12 53l-12 220q-7 0 -7 4l-8 -4h-27q-79 0 -79 76l3 27q-30 34 -30 68t34 65v19q0 87 122 87q176 38 357 38q47 -3 49 -3zM547 1077q8 -111 8 -163q4 -8 4 -12h3
q179 48 240 114q-88 61 -251 61h-4zM574 560l11 -190q99 -15 243 -15q23 0 23 46v11q0 112 -144 190h-4q-88 -30 -129 -42z" />
    <glyph glyph-name="c" unicode="c" horiz-adv-x="1399" 
d="M532 1421h34q66 0 202 -26q136 0 338 -84q33 -29 45 -84q46 -41 46 -76q0 -58 -53 -79v-19q-6 -84 -84 -84q-11 0 -178 57q-102 19 -149 19q-178 0 -277 -125q-38 -102 -53 -282q0 -213 87 -243l38 -19q128 0 414 99h12q43 0 68 -38q26 0 122 11q54 0 80 -60
q0 -28 49 -80l4 -27q0 -49 -53 -87q0 -76 -65 -99q-261 -95 -445 -95h-41q-256 0 -384 171q-92 54 -122 80q-167 131 -167 471v49q0 177 80 373q33 82 152 186q125 91 300 91z" />
    <glyph glyph-name="d" unicode="d" horiz-adv-x="1351" 
d="M521 1426h45q455 0 627 -349q42 -124 42 -251q0 -263 -103 -388l-148 -171q-118 -109 -273 -159q-89 -50 -198 -80l-46 -91q0 -17 -53 -27h-7q-24 0 -50 19h-30q-37 0 -72 46q-92 0 -92 114q0 54 -41 942h-50q-72 11 -72 72v8q0 42 38 61v11q-30 34 -34 80v7q0 71 121 84
q65 8 88 8q31 64 308 64zM475 1035l27 -661q227 0 349 243q15 51 15 68q-25 139 -95 217q-144 133 -296 133z" />
    <glyph glyph-name="e" unicode="e" horiz-adv-x="1128" 
d="M756 1395q48 0 88 -57h38q76 0 76 -122q0 -7 -8 -23q15 -26 15 -45v-8q0 -76 -133 -76q-103 0 -418 -11v-171q261 11 331 11q49 0 64 -72v-8q0 -41 -53 -76h46q72 -12 72 -72v-8q0 -37 -46 -72q0 -87 -98 -87q-16 -4 -316 -12v-186q309 -4 483 -4h30q76 0 76 -114
q11 0 15 -38v-7q0 -65 -87 -76q-23 -42 -65 -42h-167q-102 0 -308 4q-34 -23 -57 -23h-7q-14 0 -65 23h-64q-42 15 -152 23q-46 26 -46 68v8q0 37 46 72l3 45q-7 14 -7 31v984q0 4 -8 42v7q0 76 133 76q59 0 589 16z" />
    <glyph glyph-name="f" unicode="f" horiz-adv-x="1279" 
d="M1030 1430q43 0 72 -61q58 0 68 -76q0 -76 -121 -76q-23 0 -57 -23q-50 0 -50 -27q59 0 69 -76q0 -76 -122 -76q-318 -15 -433 -22l4 -46v-95h372q80 0 80 -80h19q76 0 103 -110v-4q0 -66 -88 -76q0 -95 -80 -95h-243q-58 0 -159 -4v-3q0 -76 3 -426q0 -58 -76 -68
q-68 12 -68 53h-4q-37 -12 -53 -12v-7q0 -80 -76 -80q-72 13 -72 65q-4 281 -4 448v27q0 8 -30 53q-23 50 -23 72q0 11 11 49q-45 23 -45 73q25 121 83 121q-4 82 -4 122v7q-41 36 -41 76q3 27 3 31q-59 0 -68 76q13 72 65 72v8q-27 23 -27 60q0 76 122 76q31 4 87 19
q16 0 42 -3q705 38 741 38z" />
    <glyph glyph-name="g" unicode="g" horiz-adv-x="1213" 
d="M513 1395q391 0 391 -80q8 0 8 -27v-7q0 -11 -15 -54q38 -27 38 -64v-8q0 -38 -50 -76q-19 -38 -57 -38l-45 4l-46 -4q-102 27 -148 27q-71 0 -171 -69q-54 -50 -87 -171q-35 -134 -35 -243v-26q0 -66 99 -149q49 -22 95 -30q79 0 270 68v4q0 312 38 312q16 19 46 19h15
q0 44 72 61h8q30 0 68 -38h23q72 -14 72 -69q-19 -547 -34 -547q-20 0 -27 -122q-26 -45 -68 -45h-8q-23 0 -49 19h-8q-31 -42 -68 -42h-8q-63 0 -72 76h-4q-122 -23 -194 -23h-95q-307 0 -406 262q-18 60 -38 202q-23 80 -23 163v69q0 318 182 516q141 130 331 130z" />
    <glyph glyph-name="h" unicode="h" horiz-adv-x="1315" 
d="M186 1447h8q72 -13 72 -72v-42h19q28 0 141 -87q14 -18 22 -118l-19 -243l354 23v3q0 456 53 456q16 19 46 19h30q36 0 68 -41h8q27 22 53 22h8q72 -12 72 -72v-11q-27 -204 -27 -403h54q72 -13 72 -72v-8q0 -23 -19 -49q11 -36 11 -46v-7q0 -49 -68 -80q-4 -16 -38 -46
q11 -255 11 -292q0 -27 -45 -65q3 -97 3 -129q0 -50 -72 -65h-7q-16 0 -69 27q-83 0 -83 125v53q0 10 -35 57q-7 51 -15 263h-4l-376 -23l-4 -46v-64q0 -151 4 -403q-21 -61 -72 -61h-8q-72 11 -72 72v27q0 6 -15 15q-72 -4 -72 -30q-26 -16 -46 -16h-7q-52 0 -73 61
q-3 202 -3 319v107q0 67 3 167q-13 47 -38 68q-11 20 -11 38v8q0 40 57 80q22 387 46 387q0 190 68 190q0 4 15 4z" />
    <glyph glyph-name="i" unicode="i" horiz-adv-x="537" 
d="M99 1432h11q76 -15 76 -76v-12h34q23 0 73 -34h3q27 19 50 19h11q76 -16 76 -72q-11 -235 -11 -350v-292q0 -195 15 -415q0 -51 -76 -68h-23q0 -11 4 -76q0 -51 -76 -68h-11q-30 0 -57 26q-64 -34 -95 -34h-12q-73 0 -83 110q-8 260 -8 335v368q13 608 38 608
q31 31 61 31z" />
    <glyph glyph-name="j" unicode="j" horiz-adv-x="1137" 
d="M684 1441h11q65 0 95 -114q68 0 92 -69q144 -458 144 -707v-98q0 -143 -95 -285q-117 -124 -228 -152q-63 -16 -84 -16h-79q-14 0 -35 4q-76 -33 -129 -34h-76q-156 0 -285 198q-15 34 -15 60v8q0 47 53 72q-4 38 -4 57q0 56 76 72h27l-4 38v8q15 76 76 76h12
q54 0 102 -106q35 -10 88 -61q30 -12 57 -12q69 0 110 35v41q0 237 -133 639v23q0 46 53 72q-4 38 -4 57q0 56 76 72h27l-4 38v8q15 76 76 76z" />
    <glyph glyph-name="k" unicode="k" horiz-adv-x="1285" 
d="M258 1422h38q126 -18 126 -102v-69q0 -71 -4 -209h8q394 283 471 320q15 3 26 3q24 0 69 -30h4q45 38 87 38q66 0 76 -80q0 -41 -46 -76v-15q0 -66 -83 -103q-13 -48 -53 -72q-34 -11 -168 -114q0 -12 187 -300q182 -273 182 -304v-8q-14 -76 -65 -76q42 -82 42 -87v-15
q0 -76 -91 -76q0 -11 -38 -15h-4q-13 0 -34 3q-38 -38 -68 -38h-12q-54 0 -133 149q-307 477 -330 509h-4q-27 -14 -27 -27q0 -99 -4 -410q0 -19 -30 -61q0 -32 -27 -61v-102q-7 -84 -68 -84h-15q-72 13 -72 72v160h-42v-129q-8 -84 -69 -84h-15q-72 16 -72 65l11 1128
q18 61 84 61h8q3 0 3 -4q8 4 12 4v141q0 57 83 79q16 19 57 19z" />
    <glyph glyph-name="l" unicode="l" horiz-adv-x="1321" 
d="M281 1416q34 0 53 -23l35 4q76 -9 76 -76v-175q22 -26 22 -64v-376q0 -114 -3 -312q108 -15 418 -42q46 15 60 15q61 -3 73 -3q89 26 110 26h4q83 0 83 -80q0 -69 -114 -91q-5 -14 -53 -38q0 -19 -27 -72q0 -66 -178 -91q0 -7 -122 -15q-243 13 -243 22q-7 -3 -11 -3v-38
q0 -84 -84 -84q-35 0 -76 49q-18 0 -49 31q-27 -8 -46 -8q-72 13 -72 72v16q-88 12 -88 76v11q0 23 19 49v12q-53 0 -68 72v11q0 63 80 73q48 22 57 22q4 407 4 597v182q0 39 60 88v91q0 63 80 72z" />
    <glyph glyph-name="m" unicode="m" horiz-adv-x="1704" 
d="M1269 1452h8q46 0 118 -79q64 -45 64 -114q129 -1007 141 -1121q0 -55 -72 -69h-8q-31 0 -61 31q-7 -4 -11 -4q7 -59 7 -88q0 -54 -72 -68h-7q-24 0 -50 19h-26q-84 0 -84 163q-8 31 -84 631h-3q-138 -197 -171 -228q-25 -7 -35 -7h-7q-5 0 -42 7q-67 -38 -87 -38
q-14 0 -35 4q-35 -27 -60 -27h-8q-56 0 -141 152q-44 61 -49 61h-4q-102 -594 -118 -623q-30 -30 -60 -30h-8q-4 0 -42 7q-67 -38 -87 -38q-14 0 -34 4q-36 -27 -61 -27h-8q-63 0 -72 76q19 174 110 684q103 559 114 601q28 38 65 38h7q48 0 111 -103h7q17 76 76 76h8
q53 0 121 -125q174 -251 179 -251h4q250 356 273 384q30 11 42 11h8q44 0 72 -53v-57h4q7 0 7 11q-11 86 -11 126q0 50 72 64z" />
    <glyph glyph-name="n" unicode="n" horiz-adv-x="1164" 
d="M920 1477h7q72 -12 72 -72v-84q44 -29 50 -60l11 -1205q-21 -61 -72 -61h-8q-23 0 -49 19h-4q-33 -34 -64 -34h-8q-72 11 -72 72v50q-410 634 -449 684h-3q0 -7 3 -46l16 -616q-21 -75 -35 -95q-48 -45 -79 -45h-8q-30 0 -61 30h-7q-27 -19 -50 -19h-7q-73 0 -73 107
q-3 38 -30 1064q7 31 15 34l-4 45v61q12 72 73 72q27 38 64 38h8q72 -12 72 -72v-38q91 -23 91 -83v-27h8q29 27 57 27h7q55 0 118 -126q201 -307 243 -365h4q-4 66 -4 107q0 177 -3 555q0 47 76 60q26 0 95 23z" />
    <glyph glyph-name="o" unicode="o" horiz-adv-x="1315" 
d="M361 1414q67 0 76 -92q23 -12 23 -15q39 32 76 46q21 57 76 57q56 -3 178 -65q139 0 316 -175q110 -159 110 -288v-118q0 -97 -61 -285q-101 -235 -289 -331q-63 -18 -171 -99q-111 -49 -171 -49h-53q-264 0 -395 308q-76 121 -76 311v99q0 235 91 433q16 60 205 244
q34 19 65 19zM395 684v-38q0 -228 110 -327q83 0 194 95q118 202 118 350q4 0 4 34v57q0 132 -110 182q-39 31 -141 61q-34 32 -34 61h-4q-137 -163 -137 -475z" />
    <glyph glyph-name="p" unicode="p" horiz-adv-x="1300" 
d="M243 1433h8q36 0 68 -42q136 23 194 23h76q176 0 331 -103q132 -45 197 -171l57 -129q15 -23 15 -110v-30q0 -132 -174 -263q-125 -76 -289 -121l-285 -65v-281q-12 -72 -72 -72h-8q-28 0 -57 26h-11q-27 -30 -27 -53q-11 -72 -72 -72h-8q-72 11 -72 72v152
q-15 43 -15 53v133q-99 27 -99 88v7q0 61 80 76v19q0 6 -57 42q-15 26 -15 46v7q0 67 91 76q4 132 4 190v422q0 76 125 76q0 4 15 4zM445 1038v-240q137 17 326 130q42 44 42 49q-43 80 -232 80h-7q-129 -7 -129 -19z" />
    <glyph glyph-name="q" unicode="q" horiz-adv-x="1321" 
d="M730 1422q41 0 129 -84h7q11 19 54 19q92 0 224 -239q68 -193 68 -335q4 0 4 -61v-98q0 -225 -110 -361q0 -54 49 -122q46 -61 46 -99q0 -64 -76 -72q-34 0 -65 34h-7q-27 -30 -65 -30q-56 0 -114 118l-8 3h-7q-108 -87 -247 -87h-53q-162 0 -335 190q-99 133 -175 331
q-49 159 -49 247v117q0 126 106 285q192 202 247 202q74 38 122 38q67 0 76 -91h4q102 21 102 60q29 35 73 35zM395 859v-57q11 -193 107 -365q91 -110 110 -110q83 7 83 27q-210 335 -224 376v15q15 72 61 72q-8 34 -8 46q0 64 76 72q50 0 84 -68q62 0 125 -129l8 -4h4
q0 155 -65 315q0 4 -99 91q-7 15 -7 42v8h-4q-52 -1 -148 -91q-36 0 -91 -168q-12 -45 -12 -72z" />
    <glyph glyph-name="r" unicode="r" horiz-adv-x="1243" 
d="M350 1424q301 0 501 -136q115 -38 194 -164q23 -42 34 -83q57 -85 57 -194v-15q0 -226 -201 -327v-8q0 -21 110 -296v-12q-13 -64 -46 -64v-8q12 -36 12 -45v-8q-12 -72 -72 -72h-12q-44 0 -91 72h-23q-36 0 -68 42q-63 0 -129 224q-6 1 -35 84q-79 -12 -110 -12h-49
l-8 -292q-21 -61 -72 -61h-8q-26 0 -57 26h-11q-27 -30 -27 -53q-11 -72 -72 -72h-7q-73 13 -73 72v8q0 56 4 152q-9 0 -19 38l19 824q-91 36 -91 80v15q0 61 80 76v19q0 4 -61 46q-11 29 -11 42v7q0 70 106 80q120 15 236 15zM437 1063l-8 -304q105 0 255 57q59 33 87 80v8
q-25 66 -79 99q-129 60 -255 60z" />
    <glyph glyph-name="s" unicode="s" horiz-adv-x="1216" 
d="M703 1425h106q156 0 190 -30q23 -29 23 -53v-12q0 -63 -87 -76q0 -13 -46 -38q31 -32 31 -60v-12q0 -63 -80 -72q-52 4 -65 4q-16 -23 -61 -23q-89 11 -163 11h-42q-125 -27 -125 -49v-11q0 -99 224 -99q335 0 410 -80q95 -75 95 -251q0 -177 -114 -292
q-39 -150 -148 -221q-135 -76 -273 -76q0 -11 -114 -15h-99q-138 0 -255 42q-34 24 -34 68q0 31 15 46q-19 26 -19 57q9 76 76 76h12q55 -8 60 -8h8q0 103 99 103q2 0 57 7h4q148 -30 235 -30h50q37 0 53 110q-34 84 -110 84q0 11 -373 26q-114 21 -167 69q-65 70 -72 140
q-4 154 -4 206q0 101 106 224q77 62 179 106q63 74 266 114q123 15 152 15z" />
    <glyph glyph-name="t" unicode="t" horiz-adv-x="1350" 
d="M555 1410h7q23 0 57 -23q344 23 494 23q79 -22 88 -118v-19q0 -19 -31 -53v-4q24 -34 80 -84q8 -24 8 -34v-7q-14 -73 -69 -73q-225 -7 -414 -19v-3l-15 -928q0 -47 -76 -60q-27 0 -61 -8h-7q-25 0 -54 23h-22q-59 0 -99 106q11 679 11 840h-4q-250 -30 -387 -30
q-61 20 -61 72v7q0 40 57 80q7 17 27 38v4q-34 33 -57 110v12q0 83 178 83q300 32 300 42q17 23 50 23z" />
    <glyph glyph-name="u" unicode="u" horiz-adv-x="1167" 
d="M996 1463q72 -16 72 -65q-20 -832 -46 -832q-42 -118 -42 -167q-30 -158 -117 -262q-123 -137 -251 -137h-61q-30 0 -122 19h-45q-190 0 -308 194q-76 156 -76 528v137q0 399 61 399q7 2 26 68q25 34 69 34q33 -3 42 -3q0 34 136 49q62 0 73 -76q-23 -231 -23 -369v-68
q0 -376 95 -471q67 -53 110 -53h4q35 0 64 163l27 718q11 30 49 57q10 91 76 91h8q34 -3 42 -3q0 34 137 49z" />
    <glyph glyph-name="v" unicode="v" horiz-adv-x="1303" 
d="M999 1431h8q72 -12 72 -73v-19h4q25 8 34 8h8q72 -11 72 -72v-4q0 -37 -285 -832q-116 -373 -156 -373q-15 -60 -114 -60h-7l-8 3q-8 0 -27 -30q-26 -19 -49 -19h-8q-72 13 -72 72v4q0 15 12 65v3h-23q-70 0 -110 164q-350 916 -350 942v12q11 72 72 72h8q10 0 53 -15
q42 35 42 45q0 51 80 69h7q68 0 110 -160q29 -18 198 -494q15 -42 23 -46h4q205 600 239 673q28 27 61 27q5 0 38 -4q23 42 64 42z" />
    <glyph glyph-name="w" unicode="w" horiz-adv-x="1617" 
d="M87 1424q32 0 61 -30q35 23 50 23q148 -1 171 -76q114 -450 121 -464h4q108 195 118 205q23 23 57 23q42 -7 45 -7q64 95 73 95q14 11 41 11q64 0 73 -76q0 -28 -42 -99q2 -61 15 -61h23q80 0 80 -76q0 -14 -19 -64q58 -113 83 -175h12q140 663 159 711q28 30 65 30
q28 0 72 -38q22 15 49 15q66 0 76 -87q27 -14 27 -61q0 -12 -8 -46l4 -53q-224 -1046 -243 -1094q-27 -31 -65 -31q-35 0 -72 42h-15q-61 0 -84 61q-47 27 -125 209q-101 205 -106 205q-141 -234 -141 -266q0 -43 -57 -87q-94 -198 -141 -198q-12 0 -76 -15q-58 0 -79 76
l-27 4q-27 -50 -76 -50q-65 0 -72 76q0 16 23 73q-16 19 -16 49q0 28 84 179q-186 724 -186 744l7 50q-30 122 -30 140q17 126 53 126q0 6 34 7z" />
    <glyph glyph-name="x" unicode="x" horiz-adv-x="1276" 
d="M1094 1440q64 0 73 -76q0 -46 -99 -114l-4 -7v-8q30 -28 30 -65q0 -47 -87 -102q-217 -201 -217 -228q327 -456 369 -669q0 -65 -76 -72q-23 0 -65 26q-34 8 -38 8q12 -36 12 -57q0 -65 -76 -72q-65 0 -103 125q-95 194 -235 403h-12q-46 -69 -159 -274l-130 -235
q-21 -23 -57 -23q-33 0 -57 27l-38 -4h-34q-80 0 -80 80q0 9 8 38q-19 25 -19 60q0 59 342 624q-30 53 -232 250l-4 35q0 11 12 49q-42 35 -42 76q12 72 68 72l-3 34q0 65 76 73q33 0 79 -42q44 0 240 -224q25 -27 30 -27q262 243 278 243q21 4 30 4q10 0 38 -8
q65 57 125 57q18 23 57 23z" />
    <glyph glyph-name="y" unicode="y" horiz-adv-x="1270" 
d="M1060 1435q84 -9 84 -76q0 -31 -53 -133v-4q83 -9 83 -76q0 -46 -99 -201q-479 -868 -535 -954q0 -22 -122 -34h-11l-23 3q-34 -30 -72 -30q-69 0 -76 84q0 22 49 117v31q-53 22 -53 76v4q3 41 152 292v8q-346 517 -354 539q-3 15 -3 31q0 25 15 45v19q-42 52 -42 95
q0 76 106 76q0 9 35 12q32 0 76 -31q52 0 159 -186q180 -270 186 -273h4q8 2 293 513q33 34 64 34q36 0 57 -19q9 0 65 38h15z" />
    <glyph glyph-name="z" unicode="z" horiz-adv-x="1499" 
d="M1193 1421q45 0 80 -42h34q84 -8 84 -76q-6 -83 -84 -83h-38q-20 0 -26 -15q30 -39 30 -65q0 -48 -76 -125l-494 -601v-7h369q129 -9 129 -38q9 -8 15 -8q107 0 129 -38q12 -29 12 -42q0 -42 -27 -64l4 -27q-6 -84 -84 -84h-152q-9 0 -53 -30q-15 -4 -30 -4h-593
q-59 -72 -103 -72h-4q-44 0 -76 53q-32 -26 -68 -26q-31 0 -80 45q-91 9 -91 88q0 38 84 129v4l-4 38q13 76 76 76h23q68 76 516 623v7l-482 -11q-57 0 -69 84q0 23 27 64v4q-13 0 -19 72q-12 0 -15 50q0 76 110 76q37 3 828 22q28 -4 42 -19q47 42 76 42z" />
    <glyph glyph-name="braceleft" unicode="{" horiz-adv-x="1053" 
d="M657 1571h16q91 -11 91 -72v-12q0 -47 -57 -80q11 -18 11 -49v-15h53q92 -11 92 -72v-12q-18 -95 -92 -95q-13 0 -34 4q-180 -18 -201 -87q-7 0 -8 -38v-42q0 -81 95 -224q8 -38 8 -50q0 -57 -46 -114v-42q0 -13 61 -72q38 -48 38 -95v-45q0 -16 -38 -149l8 -3
q15 0 98 41h19q80 0 80 -79q0 -44 -53 -80q8 -34 8 -46q0 -14 -12 -45h12q26 22 64 22q80 0 80 -79q0 -98 -182 -137q-15 -4 -35 -4h-49q-131 0 -205 91q-192 0 -259 213q-3 33 -3 57q0 91 68 331q-119 83 -175 83q-49 9 -95 76q-15 20 -15 42v11q0 68 118 88q23 0 23 30
q0 39 49 72v4q-61 102 -61 224q0 212 148 274q22 11 80 80q115 95 300 95zM433 1240l-4 -7v-4h4q8 0 8 7z" />
    <glyph glyph-name="bar" unicode="|" horiz-adv-x="455" 
d="M262 1487q76 -13 76 -68q8 -1040 8 -1387q-14 -73 -72 -73h-12q-7 0 -38 8q-25 -57 -72 -57h-11q-73 13 -73 72v19q-34 0 -60 61q-8 1144 -8 1254q17 61 84 61h15q29 49 83 49q19 61 80 61z" />
    <glyph glyph-name="braceright" unicode="}" horiz-adv-x="1071" 
d="M293 1571q185 0 300 -95q58 -69 80 -80q148 -62 148 -274q0 -122 -61 -224v-4q49 -33 49 -72q0 -30 23 -30q118 -20 118 -88v-11q0 -22 -15 -42q-46 -67 -95 -76q-56 0 -175 -83q68 -240 68 -331q0 -24 -3 -57q-67 -213 -259 -213q-74 -91 -205 -91h-49q-20 0 -35 4
q-182 39 -182 137q0 79 80 79q38 0 64 -22h12q-12 31 -12 45q0 12 8 46q-53 36 -53 80q0 79 80 79h19q83 -41 98 -41l8 3q-38 133 -38 149v45q0 47 38 95q61 59 61 72v42q-46 57 -46 114q0 12 8 50q95 143 95 224v42q-1 38 -8 38q-21 69 -201 87q-21 -4 -34 -4q-74 0 -92 95
v12q0 61 92 72h53v15q0 31 11 49q-57 33 -57 80v12q0 61 91 72h16zM517 1240l-8 -4q0 -7 8 -7h4v4z" />
    <glyph glyph-name="asciitilde" unicode="~" horiz-adv-x="1383" 
d="M562 1074q81 0 213 -148l76 -118h4q63 78 87 129q51 25 65 65q27 23 53 23h8q9 0 34 -8q19 11 38 11h8q41 0 106 -76q8 -13 8 -30v-4q0 -41 -57 -125v-4q7 -25 7 -34v-4q0 -82 -205 -296q-89 -57 -137 -57h-26q-49 0 -103 45l-27 -4h-34q-108 0 -194 190q-26 50 -38 57
h-7q-72 -48 -133 -258q-29 -38 -65 -38h-7q-73 11 -73 72v8l-76 -38h-15q-72 11 -72 72v4q55 278 175 406q135 156 262 156q84 4 125 4z" />
    <glyph glyph-name="exclamdown" unicode="&#xa1;" horiz-adv-x="507" 
d="M182 -330h-7q-20 0 -76 30q-50 20 -50 61v67q-44 39 -49 84v74q0 369 49 659q22 78 88 78q28 33 64 33h8q72 -10 72 -64q0 -19 -15 -80q0 -2 4 -44q42 13 53 13h8q72 -10 72 -63q-57 -298 -57 -700v-44q0 -67 -99 -67q-23 -37 -65 -37zM262 819q-53 0 -72 53h-15
q-84 0 -84 84v57q0 38 23 64v88q0 66 72 91q0 10 46 11q72 -12 72 -72v-53h27q72 -13 72 -72v-69q0 -58 -57 -133q-39 -49 -84 -49z" />
    <glyph glyph-name="cent" unicode="&#xa2;" horiz-adv-x="1402" 
d="M828 1575h31q45 0 61 -73q0 -18 -8 -117q236 -47 236 -145q49 -44 49 -80q0 -58 -53 -79v-19q-6 -84 -84 -84q-11 0 -144 46q-2 3 -34 3q-8 -53 -54 -577q107 34 126 34q43 0 68 -38q26 0 122 11q54 0 80 -60q0 -28 49 -80l4 -27q0 -49 -53 -87q0 -76 -65 -99
q-261 -95 -445 -95h-3q-8 0 -23 -163q-31 -46 -80 -46q-78 0 -87 103q-42 12 -80 98v50q-54 27 -179 148q-53 16 -167 133q-95 136 -95 410v38q0 177 80 373q33 82 152 186q125 91 300 91h30q44 46 80 50q42 60 88 60l38 -3q25 38 60 38zM403 647q7 -208 64 -228h8
q46 497 46 570q-80 -48 -80 -117q-23 -50 -38 -225z" />
    <glyph glyph-name="sterling" unicode="&#xa3;" horiz-adv-x="1327" 
d="M566 1444h107q315 -32 315 -87q10 0 11 -46l-3 -19q15 -25 15 -53l-4 -34q217 -29 217 -106v-12q0 -48 -73 -95q0 -9 -45 -11q-18 0 -46 11l-45 -4q-159 42 -217 42h-15q-84 0 -171 -49q-52 -62 -72 -160v-15q119 4 144 4q76 -9 76 -76v-4l-4 -34h69q83 -8 83 -69
q0 -56 34 -121v-15q0 -80 -129 -80q-119 0 -262 -8q3 -57 11 -57q99 0 365 4q64 -27 80 -27q0 -3 27 -19h91q83 0 83 -79q0 -48 -57 -80q0 -59 -72 -80q-30 -53 -68 -53q-210 -4 -335 -4q-38 0 -114 -4q-22 -34 -72 -34q-19 0 -45 15q-15 -7 -42 -7q-24 0 -53 22h-168
q-72 13 -72 73v11q0 19 15 46q-20 13 -41 53q-57 25 -57 72v11q0 63 79 73h76v3q0 86 -41 111q0 11 -61 57q-15 20 -15 41v12q0 35 45 72h-38q-72 13 -72 72v12q0 72 110 72q21 4 34 4v144q0 328 232 460q115 45 190 45z" />
    <glyph glyph-name="yen" unicode="&#xa5;" horiz-adv-x="1315" 
d="M80 1463q44 0 133 -102q40 0 209 -198l178 -186h8q183 282 201 300q44 26 69 72q44 92 106 92q76 -10 76 -76v-4q40 4 46 4q63 0 72 -80q0 -25 -49 -103q0 -67 -46 -118q-263 -409 -281 -456v-41q0 -4 -4 -4q4 -8 4 -12q25 0 197 -3q63 0 73 -80q0 -17 -8 -34l4 -38
q0 -76 -133 -76h-76q1 -8 7 -8h27q84 0 84 -80q-10 -76 -76 -76h-122v-7q0 -152 -42 -152q0 -8 -38 -12q-8 0 -42 4q-26 -8 -45 -8q-10 0 -46 12q-16 -23 -61 -23q-72 13 -72 72v31q-23 29 -23 53v30h-117q-127 12 -133 34q-24 0 -35 57v12q0 63 80 72h72v8q-22 28 -26 64
q-46 20 -46 65v11q0 63 80 72h144v4q0 9 4 57q-13 91 -38 91q-357 381 -384 422l-3 23v11q0 35 41 69v7q-26 30 -26 95q-23 20 -23 50v11q0 63 80 72z" />
    <glyph glyph-name="brokenbar" unicode="&#xa6;" horiz-adv-x="555" 
d="M293 1580h7q80 0 80 -122q46 -38 46 -235q22 -196 22 -259q0 -58 -87 -64q-39 -31 -65 -31h-7q-38 8 -42 8q-23 -57 -72 -57h-8q-25 0 -76 38q-64 0 -64 201q-27 237 -27 300q0 50 72 65h8q44 -11 61 -11q11 72 72 72h7v23q12 72 73 72zM350 767h7q52 0 72 -61
q8 -385 8 -449q0 -28 -57 -64v-126q-11 -72 -72 -72h-8q-26 0 -64 31q-27 -46 -69 -46h-7q-76 15 -76 76v11q-12 235 -16 586q21 60 73 60h7q62 0 72 -76q5 0 42 8h15v49q12 73 73 73z" />
    <glyph glyph-name="dieresis" unicode="&#xa8;" horiz-adv-x="1024" 
d="M722 1437h11q33 0 88 -57h23q63 0 72 -79v-23q15 -18 15 -53q-30 -149 -72 -149q-29 -76 -72 -76q-22 -30 -65 -30q-76 9 -76 76v8q0 27 38 129q-61 47 -61 99q24 155 99 155zM179 1369h11q66 0 76 -91v-38l-4 -38q53 -25 53 -84v-34q0 -84 -79 -84q-41 0 -69 38
q-37 -38 -72 -38h-4q-76 10 -76 76v35q-15 17 -15 53v45q19 80 80 80h26v8q13 72 73 72z" />
    <glyph glyph-name="guillemotleft" unicode="&#xab;" horiz-adv-x="1115" 
d="M388 1273h7q72 -13 72 -72v-27q0 -16 69 -27q38 -29 38 -64v-8q0 -35 -167 -262q-12 -14 -12 -27q171 -300 171 -326v-8q-11 -72 -72 -72h-27q-28 -80 -83 -80h-8q-31 0 -64 34q-37 -7 -42 -7h-8q-58 0 -118 136q-136 231 -144 278v7q0 31 72 130q0 59 95 171
q86 142 148 193q54 31 73 31zM802 1155h7q15 0 92 -38q70 0 87 -49l4 -23q0 -8 -4 -42q19 -28 19 -49q0 -69 -103 -202q-11 -23 -11 -30q76 -146 76 -167v-4q0 -14 -4 -34q19 -32 19 -57q0 -103 -76 -103h-7q-58 0 -88 91h-11q-74 -38 -95 -38h-8q-61 0 -110 137
q-91 167 -91 194v7q0 40 178 293q13 0 80 99q26 15 46 15z" />
    <glyph glyph-name="logicalnot" unicode="&#xac;" horiz-adv-x="1128" 
d="M175 962q57 0 756 -7q68 0 68 -171q31 0 31 -278q0 -50 -72 -64h-35l-38 4q-26 -46 -68 -46h-8q-76 0 -76 133v80l-672 7q-61 21 -61 73v7q11 72 72 72h15q0 26 -34 65q-7 14 -7 30v8q0 76 102 76q0 6 27 11z" />
    <glyph glyph-name="plusminus" unicode="&#xb1;" horiz-adv-x="1436" 
d="M616 287q-6 5 -12 11l-19 -4h-11q-72 12 -72 73v163q0 56 3 152h-433q-72 11 -72 72v8q0 63 95 83h57v4q-11 36 -11 46v7q0 76 102 76q0 7 27 8h235q4 175 4 266v61q12 72 72 72h16q0 44 72 61h7q53 0 76 -69q46 -28 57 -79v-76q16 -43 16 -54v-186h349q148 0 148 -57
q4 -6 4 -19v-7q0 -38 -38 -65q38 -37 38 -68v-8q-11 -72 -72 -72h-194q-37 -8 -42 -8h-197v-4q-3 -274 -4 -388q169 -1 384 -2q125 0 125 -76v-8q0 -37 -38 -64q38 -37 38 -69v-7q-11 -72 -72 -72h-194q-4 0 -42 -8q-836 4 -953 4q-50 0 -65 72v8q0 63 95 83h57v4
q-11 36 -11 46v7q0 76 102 76q0 7 27 8q103 0 346 -1z" />
    <glyph glyph-name="acute" unicode="&#xb4;" horiz-adv-x="735" 
d="M505 1430h8q62 0 80 -92q45 -61 45 -87v-8q0 -26 -38 -72q8 -24 8 -34v-8q0 -58 -148 -129q-164 -110 -198 -110h-7q-73 11 -73 72v8q-64 -31 -79 -31h-8q-64 0 -95 111v7q0 57 133 122q16 4 53 68q287 183 319 183z" />
    <glyph glyph-name="cedilla" unicode="&#xb8;" horiz-adv-x="804" 
d="M300 178h8q45 0 80 -73q62 0 91 -60q29 -46 87 -92q122 -120 122 -247v-22q0 -107 -167 -156q-46 -118 -232 -118h-4q-239 0 -239 46q-14 0 -19 41v8q0 27 26 57q-53 34 -53 72v8q0 75 68 110q22 46 65 46h8q55 -8 60 -8h12q-19 69 -19 91v4l4 23q-31 65 -31 110v4
q0 75 69 110q21 46 64 46z" />
    <glyph glyph-name="guillemotright" unicode="&#xbb;" horiz-adv-x="1115" 
d="M619 1273q19 0 73 -31q62 -51 148 -193q95 -112 95 -171q72 -99 72 -130v-7q-8 -47 -144 -278q-60 -136 -118 -136h-8q-5 0 -42 7q-33 -34 -64 -34h-8q-55 0 -83 80h-27q-61 0 -72 72v8q0 26 171 326q0 13 -12 27q-167 227 -167 262v8q0 35 38 64q69 11 69 27v27
q0 59 72 72h7zM205 1155q20 0 46 -15q67 -99 80 -99q178 -253 178 -293v-7q0 -27 -91 -194q-49 -137 -110 -137h-8q-21 0 -95 38h-11q-30 -91 -88 -91h-7q-76 0 -76 103q0 25 19 57q-4 20 -4 34v4q0 21 76 167q0 7 -11 30q-103 133 -103 202q0 21 19 49q-4 34 -4 42l4 23
q17 49 87 49q77 38 92 38h7z" />
    <glyph glyph-name="questiondown" unicode="&#xbf;" horiz-adv-x="1204" 
d="M686 -320h-148q-277 0 -395 198q-46 26 -137 231q-6 26 -6 57q0 70 30 169q44 143 356 244q60 26 61 79v8q0 50 72 64h7q38 0 69 -42q34 23 57 23h7q76 0 88 -105q45 0 53 -110q4 -105 4 -133q0 -99 -300 -105q-156 -93 -156 -168q33 -29 87 -38h19q107 0 369 57
q26 0 64 -30q51 11 69 11q76 0 76 -110q6 0 7 -26v-8q0 -23 -19 -49v-8q73 -11 73 -72v-8q0 -74 -126 -87q-159 -41 -281 -42zM632 792q-53 0 -72 53h-15q-84 0 -84 84v57q0 38 23 64v88q0 66 72 91q0 9 46 11q72 -13 72 -72v-53h26q73 -13 73 -72v-69q0 -58 -57 -133
q-39 -49 -84 -49z" />
    <glyph glyph-name="Agrave" unicode="&#xc0;" 
d="M513 809q-8 -21 -46 -243h118v7q-61 236 -72 236zM536 1432q43 0 80 -53q88 0 106 -126q18 -87 53 -110q15 -18 175 -577h65q83 0 83 -80q0 -17 -15 -53q23 -18 23 -57q-9 -76 -76 -76q64 -225 72 -274q-9 -76 -76 -76h-8q-69 0 -95 137q-15 57 -22 57q-16 -4 -16 -19
q8 -27 8 -46q-9 -76 -76 -76h-8q-74 0 -106 179q-9 26 -15 26h-285q-19 -182 -91 -182h-16q-28 0 -60 30h-4q-26 -38 -76 -38q-72 13 -72 73q0 30 19 140q-19 29 -19 50v41q0 10 11 46h-23q-72 13 -72 72v12q0 63 80 72h76q125 697 137 729q19 26 64 46q55 68 99 68
q0 53 80 65zM438 1842h7q31 0 297 -148q22 -27 22 -53v-8q-12 -72 -72 -72h-26q0 -4 57 -38q22 -27 22 -53v-8q-12 -72 -72 -72h-7q-29 0 -327 152q-87 41 -110 76q-99 38 -99 95v8q0 50 99 106q6 4 19 4h7q14 0 107 -42h7q0 39 69 53z" />
    <glyph glyph-name="Aacute" unicode="&#xc1;" 
d="M513 809q-8 -21 -46 -243h118v7q-61 236 -72 236zM666 1366q44 -28 56 -113q18 -87 53 -110q15 -18 175 -577h65q83 0 83 -80q0 -17 -15 -53q23 -18 23 -57q-9 -76 -76 -76q64 -225 72 -274q-9 -76 -76 -76h-8q-69 0 -95 137q-15 57 -22 57q-16 -4 -16 -19q8 -27 8 -46
q-9 -76 -76 -76h-8q-74 0 -106 179q-9 26 -15 26h-285q-19 -182 -91 -182h-16q-28 0 -60 30h-4q-26 -38 -76 -38q-72 13 -72 73q0 30 19 140q-19 29 -19 50v41q0 10 11 46h-23q-72 13 -72 72v12q0 63 80 72h76q125 697 137 729q19 26 64 46q55 68 99 68q0 15 6 27
q-13 -5 -19 -5h-8q-64 0 -95 111v7q0 57 133 122q16 4 53 68q287 183 320 183h7q62 0 80 -92q46 -61 46 -87v-8q0 -26 -38 -72q7 -24 7 -34v-8q0 -58 -148 -129q-84 -57 -134 -84z" />
    <glyph glyph-name="Acircumflex" unicode="&#xc2;" 
d="M536 1432q43 0 80 -53q88 0 106 -126q18 -87 53 -110q15 -18 175 -577h65q83 0 83 -80q0 -17 -15 -53q23 -18 23 -57q-9 -76 -76 -76q64 -225 72 -274q-9 -76 -76 -76h-8q-69 0 -95 137q-15 57 -22 57q-16 -4 -16 -19q8 -27 8 -46q-9 -76 -76 -76h-8q-74 0 -106 179
q-9 26 -15 26h-285q-19 -182 -91 -182h-16q-28 0 -60 30h-4q-26 -38 -76 -38q-72 13 -72 73q0 30 19 140q-19 29 -19 50v41q0 10 11 46h-23q-72 13 -72 72v12q0 63 80 72h76q125 697 137 729q19 26 64 46q55 68 99 68q0 53 80 65zM513 809q-8 -21 -46 -243h118v7
q-61 236 -72 236zM479 1860h8q26 0 87 -45q26 15 46 15h7q39 0 171 -122q73 -52 73 -95v-7q0 -46 -65 -80v-23q-13 -72 -72 -72h-8q-18 0 -38 11q-34 -23 -57 -23h-7q-34 0 -92 54h-7q-62 -92 -107 -92h-7q-19 0 -38 12q-35 -23 -57 -23h-8q-72 11 -72 72v8q0 9 8 34
q-8 14 -8 30v8q0 15 27 72q0 43 174 255q30 11 42 11z" />
    <glyph glyph-name="Atilde" unicode="&#xc3;" 
d="M536 1432q43 0 80 -53q88 0 106 -126q18 -87 53 -110q15 -18 175 -577h65q83 0 83 -80q0 -17 -15 -53q23 -18 23 -57q-9 -76 -76 -76q64 -225 72 -274q-9 -76 -76 -76h-8q-69 0 -95 137q-15 57 -22 57q-16 -4 -16 -19q8 -27 8 -46q-9 -76 -76 -76h-8q-74 0 -106 179
q-9 26 -15 26h-285q-19 -182 -91 -182h-16q-28 0 -60 30h-4q-26 -38 -76 -38q-72 13 -72 73q0 30 19 140q-19 29 -19 50v41q0 10 11 46h-23q-72 13 -72 72v12q0 63 80 72h76q125 697 137 729q19 26 64 46q55 68 99 68q0 53 80 65zM513 809q-8 -21 -46 -243h118v7
q-61 236 -72 236zM401 1846h31q98 0 216 -110q17 -4 53 -34h8q47 65 87 65q35 0 76 30h23q103 -17 103 -87h30q72 -12 72 -73v-7q0 -74 -212 -228q-91 -42 -130 -42h-45q-64 0 -217 152q-24 19 -38 19h-11q-22 0 -103 -91q-9 0 -61 -53q-64 -27 -76 -27h-7q-65 0 -84 103v30
l-38 -4q-72 12 -72 72v8q0 65 186 205q41 27 137 53q37 19 72 19z" />
    <glyph glyph-name="Adieresis" unicode="&#xc4;" 
d="M536 1432q43 0 80 -53q88 0 106 -126q18 -87 53 -110q15 -18 175 -577h65q83 0 83 -80q0 -17 -15 -53q23 -18 23 -57q-9 -76 -76 -76q64 -225 72 -274q-9 -76 -76 -76h-8q-69 0 -95 137q-15 57 -22 57q-16 -4 -16 -19q8 -27 8 -46q-9 -76 -76 -76h-8q-74 0 -106 179
q-9 26 -15 26h-285q-19 -182 -91 -182h-16q-28 0 -60 30h-4q-26 -38 -76 -38q-72 13 -72 73q0 30 19 140q-19 29 -19 50v41q0 10 11 46h-23q-72 13 -72 72v12q0 63 80 72h76q125 697 137 729q19 26 64 46q55 68 99 68q0 53 80 65zM513 809q-8 -21 -46 -243h118v7
q-61 236 -72 236zM809 1847h11q33 0 88 -57h23q63 0 72 -79v-23q15 -18 15 -53q-30 -149 -72 -149q-29 -76 -72 -76q-22 -30 -65 -30q-76 9 -76 76v8q0 27 38 129q-61 47 -61 99q24 155 99 155zM266 1779h11q66 0 76 -91v-38l-4 -38q53 -25 53 -84v-34q0 -84 -79 -84
q-41 0 -69 38q-37 -38 -72 -38h-4q-76 10 -76 76v35q-15 17 -15 53v45q19 80 80 80h26v8q13 72 73 72z" />
    <glyph glyph-name="Aring" unicode="&#xc5;" 
d="M513 809q-8 -21 -46 -243h118v7q-61 236 -72 236zM530 1568v-8q0 -15 50 -30l15 45q-4 8 -4 12h-4q-57 -9 -57 -19zM714 1293q5 -18 8 -40q18 -87 53 -110q15 -18 175 -577h65q83 0 83 -80q0 -17 -15 -53q23 -18 23 -57q-9 -76 -76 -76q64 -225 72 -274q-9 -76 -76 -76
h-8q-69 0 -95 137q-15 57 -22 57q-16 -4 -16 -19q8 -27 8 -46q-9 -76 -76 -76h-8q-74 0 -106 179q-9 26 -15 26h-285q-19 -182 -91 -182h-16q-28 0 -60 30h-4q-26 -38 -76 -38q-72 13 -72 73q0 30 19 140q-19 29 -19 50v41q0 10 11 46h-23q-72 13 -72 72v12q0 63 80 72h76
q125 697 137 729q19 26 64 46q28 35 53 52q-19 22 -36 50q-22 0 -91 91q-19 60 -19 83v23q0 143 145 198q65 6 110 34q38 15 68 15h31q148 0 201 -137q11 -41 23 -121v-23q0 -62 -34 -129q0 -79 -94 -142z" />
    <glyph glyph-name="AE" unicode="&#xc6;" horiz-adv-x="1776" 
d="M718 1422q51 0 80 -42q71 0 597 15q47 0 87 -57h38q76 0 76 -121q0 -7 -8 -23q16 -26 16 -46v-7q0 -76 -133 -76q-104 0 -418 -12v-171q260 12 330 12q50 0 65 -72v-8q0 -41 -53 -76h45q72 -13 72 -72v-8q0 -37 -45 -72q0 -87 -99 -87q-40 -4 -274 -12v-4q0 -27 -15 -60
q23 -18 23 -57q0 -32 -27 -61v-4q278 -4 426 -4h65q76 0 76 -114q10 0 15 -38v-7q0 -65 -88 -76q-22 -42 -64 -42h-217q-76 0 -228 4q-8 -84 -68 -84h-15q-63 0 -76 84h-61q-33 -31 -61 -31h-11q-39 0 -73 50q-57 23 -57 72v7q0 37 46 73v3h-296q-56 -182 -118 -182h-15
q-28 0 -61 30h-4q-30 -38 -65 -38h-11q-72 13 -72 73v15q13 86 30 137q12 14 12 30v49q0 10 11 46h-23q-72 13 -72 72v12q13 72 72 72h110q7 3 293 722q16 30 68 53q50 65 92 65h11q0 53 72 68zM631 806q-95 -235 -95 -250h121q-15 218 -19 250h-7z" />
    <glyph glyph-name="Ccedilla" unicode="&#xc7;" horiz-adv-x="1399" 
d="M463 37q-105 42 -174 134q-92 54 -122 80q-167 131 -167 471v49q0 177 80 373q33 82 152 186q125 91 300 91h34q66 0 202 -26q136 0 338 -84q33 -29 45 -84q46 -41 46 -76q0 -58 -53 -79v-19q-6 -84 -84 -84q-11 0 -178 57q-102 19 -149 19q-178 0 -277 -125
q-38 -102 -53 -282q0 -213 87 -243l38 -19q128 0 414 99h12q43 0 68 -38q26 0 122 11q54 0 80 -60q0 -28 49 -80l4 -27q0 -49 -53 -87q0 -76 -65 -99q-200 -73 -355 -90q24 -26 57 -52q121 -120 121 -247v-22q0 -107 -167 -156q-46 -118 -232 -118h-3q-240 0 -240 46
q-13 0 -19 41v8q0 27 27 57q-53 34 -53 72v8q0 75 68 110q22 46 65 46h7q56 -8 61 -8h11q-19 69 -19 91v4l4 23q-30 65 -30 110v4q0 8 1 15z" />
    <glyph glyph-name="Egrave" unicode="&#xc8;" horiz-adv-x="1128" 
d="M756 1395q48 0 88 -57h38q76 0 76 -122q0 -7 -8 -23q15 -26 15 -45v-8q0 -76 -133 -76q-103 0 -418 -11v-171q261 11 331 11q49 0 64 -72v-8q0 -41 -53 -76h46q72 -12 72 -72v-8q0 -37 -46 -72q0 -87 -98 -87q-16 -4 -316 -12v-186q309 -4 483 -4h30q76 0 76 -114
q11 0 15 -38v-7q0 -65 -87 -76q-23 -42 -65 -42h-167q-102 0 -308 4q-34 -23 -57 -23h-7q-14 0 -65 23h-64q-42 15 -152 23q-46 26 -46 68v8q0 37 46 72l3 45q-7 14 -7 31v984q0 4 -8 42v7q0 76 133 76q59 0 589 16zM394 1852h7q31 0 297 -148q23 -27 23 -53v-8
q-13 -72 -73 -72h-26q0 -4 57 -38q23 -27 23 -53v-8q-13 -72 -73 -72h-7q-29 0 -327 152q-86 41 -110 76q-99 38 -99 95v8q0 50 99 106q6 4 19 4h7q14 0 107 -42h7q0 39 69 53z" />
    <glyph glyph-name="Eacute" unicode="&#xc9;" horiz-adv-x="1128" 
d="M732 1394q12 1 24 1q48 0 88 -57h38q76 0 76 -122q0 -7 -8 -23q15 -26 15 -45v-8q0 -76 -133 -76q-103 0 -418 -11v-171q261 11 331 11q49 0 64 -72v-8q0 -41 -53 -76h46q72 -12 72 -72v-8q0 -37 -46 -72q0 -87 -98 -87q-16 -4 -316 -12v-186q309 -4 483 -4h30
q76 0 76 -114q11 0 15 -38v-7q0 -65 -87 -76q-23 -42 -65 -42h-167q-102 0 -308 4q-34 -23 -57 -23h-7q-14 0 -65 23h-64q-42 15 -152 23q-46 26 -46 68v8q0 37 46 72l3 45q-7 14 -7 31v984q0 4 -8 42v7q0 76 133 76q28 0 164 4q-21 27 -35 77v7q0 57 133 122q16 4 54 68
q286 183 319 183h7q63 0 80 -92q46 -61 46 -87v-8q0 -26 -38 -72q7 -24 7 -34v-8q0 -58 -148 -129z" />
    <glyph glyph-name="Ecircumflex" unicode="&#xca;" horiz-adv-x="1128" 
d="M425 1385l331 10q48 0 88 -57h38q76 0 76 -122q0 -7 -8 -23q15 -26 15 -45v-8q0 -76 -133 -76q-103 0 -418 -11v-171q261 11 331 11q49 0 64 -72v-8q0 -41 -53 -76h46q72 -12 72 -72v-8q0 -37 -46 -72q0 -87 -98 -87q-16 -4 -316 -12v-186q309 -4 483 -4h30q76 0 76 -114
q11 0 15 -38v-7q0 -65 -87 -76q-23 -42 -65 -42h-167q-102 0 -308 4q-34 -23 -57 -23h-7q-14 0 -65 23h-64q-42 15 -152 23q-46 26 -46 68v8q0 37 46 72l3 45q-7 14 -7 31v984q0 4 -8 42v7q0 76 133 76q11 0 38 1q-13 16 -13 42v8q0 9 8 34q-8 14 -8 30v8q0 15 27 72
q0 43 174 255q30 11 42 11h8q25 0 87 -45q26 15 46 15h7q38 0 171 -122q73 -52 73 -95v-7q0 -46 -65 -80v-23q-13 -72 -72 -72h-8q-18 0 -38 11q-34 -23 -57 -23h-7q-34 0 -92 54h-7q-30 -45 -56 -68z" />
    <glyph glyph-name="Edieresis" unicode="&#xcb;" horiz-adv-x="1128" 
d="M796 1384q25 -14 48 -46h38q76 0 76 -122q0 -7 -8 -23q15 -26 15 -45v-8q0 -76 -133 -76q-103 0 -418 -11v-171q261 11 331 11q49 0 64 -72v-8q0 -41 -53 -76h46q72 -12 72 -72v-8q0 -37 -46 -72q0 -87 -98 -87q-16 -4 -316 -12v-186q309 -4 483 -4h30q76 0 76 -114
q11 0 15 -38v-7q0 -65 -87 -76q-23 -42 -65 -42h-167q-102 0 -308 4q-34 -23 -57 -23h-7q-14 0 -65 23h-64q-42 15 -152 23q-46 26 -46 68v8q0 37 46 72l3 45q-7 14 -7 31v984q0 4 -8 42v7q0 76 133 76q57 0 554 15q-31 19 -31 62v8q0 27 38 129q-61 47 -61 99
q24 155 99 155h11q33 0 88 -57h22q63 0 73 -79v-23q15 -18 15 -53q-30 -149 -72 -149q-29 -76 -73 -76q-13 -18 -34 -26zM222 1779h12q66 0 76 -91v-38l-4 -38q53 -25 53 -84v-34q0 -84 -80 -84q-40 0 -68 38q-37 -38 -72 -38h-4q-76 10 -76 76v35q-15 17 -15 53v45
q19 80 80 80h26v8q13 72 72 72z" />
    <glyph glyph-name="Igrave" unicode="&#xcc;" horiz-adv-x="537" 
d="M99 1432h11q76 -15 76 -76v-12h34q23 0 73 -34h3q27 19 50 19h11q76 -16 76 -72q-11 -235 -11 -350v-292q0 -195 15 -415q0 -51 -76 -68h-23q0 -11 4 -76q0 -51 -76 -68h-11q-30 0 -57 26q-64 -34 -95 -34h-12q-73 0 -83 110q-8 260 -8 335v368q13 608 38 608
q31 31 61 31zM103 1842h7q31 0 297 -148q23 -27 23 -53v-8q-13 -72 -73 -72h-26q0 -4 57 -38q23 -27 23 -53v-8q-13 -72 -73 -72h-7q-29 0 -327 152q-86 41 -110 76q-99 38 -99 95v8q0 50 99 106q6 4 19 4h7q14 0 107 -42h7q0 39 69 53z" />
    <glyph glyph-name="Iacute" unicode="&#xcd;" horiz-adv-x="537" 
d="M33 1394q-16 26 -27 66v7q0 57 133 122q16 4 53 68q287 183 319 183h8q62 0 80 -92q45 -61 45 -87v-8q0 -26 -38 -72q8 -24 8 -34v-8q0 -58 -148 -129q-81 -54 -131 -82q6 1 11 1h11q76 -16 76 -72q-11 -235 -11 -350v-292q0 -195 15 -415q0 -51 -76 -68h-23q0 -11 4 -76
q0 -51 -76 -68h-11q-30 0 -57 26q-64 -34 -95 -34h-12q-73 0 -83 110q-8 260 -8 335v368q12 543 33 601zM183 1378q3 -10 3 -22v-12h7q-5 12 -5 28v8q-2 -1 -5 -2z" />
    <glyph glyph-name="Icircumflex" unicode="&#xce;" horiz-adv-x="537" 
d="M160 1412q26 -20 26 -56v-12h34q23 0 73 -34h3q27 19 50 19h11q76 -16 76 -72q-11 -235 -11 -350v-292q0 -195 15 -415q0 -51 -76 -68h-23q0 -11 4 -76q0 -51 -76 -68h-11q-30 0 -57 26q-64 -34 -95 -34h-12q-73 0 -83 110q-8 260 -8 335v368q10 462 27 573
q-27 -16 -46 -16h-8q-72 11 -72 72v8q0 9 8 34q-8 14 -8 30v8q0 15 27 72q0 43 175 255q29 11 41 11h8q26 0 87 -45q26 15 46 15h8q38 0 171 -122q72 -52 72 -95v-7q0 -46 -65 -80v-23q-13 -72 -72 -72h-8q-18 0 -38 11q-34 -23 -57 -23h-7q-34 0 -91 54h-8q-16 -24 -30 -41
z" />
    <glyph glyph-name="Idieresis" unicode="&#xcf;" horiz-adv-x="537" 
d="M99 1432h11q76 -15 76 -76v-12h34q23 0 73 -34h3q27 19 50 19h11q76 -16 76 -72q-11 -235 -11 -350v-292q0 -195 15 -415q0 -51 -76 -68h-23q0 -11 4 -76q0 -51 -76 -68h-11q-30 0 -57 26q-64 -34 -95 -34h-12q-73 0 -83 110q-8 260 -8 335v368q13 608 38 608
q31 31 61 31zM475 1847h11q33 0 88 -57h23q63 0 72 -79v-23q15 -18 15 -53q-30 -149 -72 -149q-29 -76 -72 -76q-22 -30 -65 -30q-76 9 -76 76v8q0 27 38 129q-61 47 -61 99q24 155 99 155zM-68 1779h11q66 0 76 -91v-38l-4 -38q53 -25 53 -84v-34q0 -84 -79 -84
q-41 0 -69 38q-37 -38 -72 -38h-4q-76 10 -76 76v35q-15 17 -15 53v45q19 80 80 80h26v8q13 72 73 72z" />
    <glyph glyph-name="Eth" unicode="&#xd0;" horiz-adv-x="1442" 
d="M616 1426h45q455 0 627 -349q42 -124 42 -251q0 -263 -103 -388l-148 -171q-118 -109 -273 -159q-89 -50 -198 -80l-46 -91q0 -17 -53 -27h-7q-24 0 -50 19h-30q-37 0 -72 46q-84 7 -84 53q-7 0 -23 452q-45 0 -80 42h-45q-54 0 -99 68q-15 0 -19 50q0 48 65 79
q0 42 79 57q0 42 80 57v4q0 61 -7 194h-50q-72 11 -72 72v8q0 42 38 61v11q-30 34 -34 80v7q0 71 121 84q65 8 88 8q31 64 308 64zM570 1035q0 -34 4 -164l4 -19q136 12 190 12q60 0 68 -80v-15q-9 -80 -65 -80v-8q4 -16 50 -26q38 -26 38 -69q0 -76 -122 -76
q-110 -7 -144 -7q4 -97 4 -129h3q222 0 346 243q15 51 15 68q-25 139 -95 217q-144 133 -296 133z" />
    <glyph glyph-name="Ntilde" unicode="&#xd1;" horiz-adv-x="1164" 
d="M749 1361q-8 -1 -14 -1h-45q-64 0 -217 152q-25 19 -38 19h-11q-22 0 -103 -91q-9 0 -61 -53q-21 -9 -37 -15q5 -12 5 -28v-38q91 -23 91 -83v-27h8q29 27 57 27h7q55 0 118 -126q201 -307 243 -365h4q-4 66 -4 107q0 169 -3 522zM953 1470q46 -17 46 -65v-84
q44 -29 50 -60l11 -1205q-21 -61 -72 -61h-8q-23 0 -49 19h-4q-33 -34 -64 -34h-8q-72 11 -72 72v50q-410 634 -449 684h-3q0 -7 3 -46l16 -616q-21 -75 -35 -95q-48 -45 -79 -45h-8q-30 0 -61 30h-7q-27 -19 -50 -19h-7q-73 0 -73 107q-3 38 -30 1064q7 31 15 34l-4 45v61
q12 72 73 72q12 17 27 27q-12 23 -18 58v30l-38 -4q-72 12 -72 72v8q0 65 186 205q41 27 137 53q37 19 72 19h31q98 0 216 -110q17 -4 53 -34h8q47 65 87 65q35 0 76 30h23q103 -17 103 -87h30q72 -12 72 -73v-7q0 -57 -124 -160z" />
    <glyph glyph-name="Ograve" unicode="&#xd2;" horiz-adv-x="1315" 
d="M361 1414q67 0 76 -92q23 -12 23 -15q39 32 76 46q21 57 76 57q56 -3 178 -65q139 0 316 -175q110 -159 110 -288v-118q0 -97 -61 -285q-101 -235 -289 -331q-63 -18 -171 -99q-111 -49 -171 -49h-53q-264 0 -395 308q-76 121 -76 311v99q0 235 91 433q16 60 205 244
q34 19 65 19zM395 684v-38q0 -228 110 -327q83 0 194 95q118 202 118 350q4 0 4 34v57q0 132 -110 182q-39 31 -141 61q-34 32 -34 61h-4q-137 -163 -137 -475zM493 1842h7q31 0 297 -148q23 -27 23 -53v-8q-13 -72 -73 -72h-26q0 -4 57 -38q23 -27 23 -53v-8
q-13 -72 -73 -72h-7q-29 0 -327 152q-86 41 -110 76q-99 38 -99 95v8q0 50 99 106q6 4 19 4h7q14 0 107 -42h7q0 39 69 53z" />
    <glyph glyph-name="Oacute" unicode="&#xd3;" horiz-adv-x="1315" 
d="M395 684v-38q0 -228 110 -327q83 0 194 95q118 202 118 350q4 0 4 34v57q0 132 -110 182q-39 31 -141 61q-34 32 -34 61h-4q-137 -163 -137 -475zM770 1355l20 -10q139 0 316 -175q110 -159 110 -288v-118q0 -97 -61 -285q-101 -235 -289 -331q-63 -18 -171 -99
q-111 -49 -171 -49h-53q-264 0 -395 308q-76 121 -76 311v99q0 235 91 433q16 60 205 244q34 19 65 19q67 0 76 -92q23 -12 23 -15q39 32 76 46l4 10q-32 -14 -42 -14h-8q-64 0 -95 111v7q0 57 133 122q16 4 53 68q287 183 320 183h7q62 0 80 -92q46 -61 46 -87v-8
q0 -26 -38 -72q7 -24 7 -34v-8q0 -58 -148 -129z" />
    <glyph glyph-name="Ocircumflex" unicode="&#xd4;" horiz-adv-x="1315" 
d="M395 684v-38q0 -228 110 -327q83 0 194 95q118 202 118 350q4 0 4 34v57q0 132 -110 182q-39 31 -141 61q-34 32 -34 61h-4q-137 -163 -137 -475zM425 1371q9 -20 12 -49q23 -12 23 -15q39 32 76 46q21 57 76 57q56 -3 178 -65q139 0 316 -175q110 -159 110 -288v-118
q0 -97 -61 -285q-101 -235 -289 -331q-63 -18 -171 -99q-111 -49 -171 -49h-53q-264 0 -395 308q-76 121 -76 311v99q0 235 91 433q16 60 205 244q-5 12 -5 27v8q0 9 7 34q-7 14 -7 30v8q0 15 26 72q0 43 175 255q29 11 42 11h8q25 0 87 -45q26 15 46 15h7q38 0 171 -122
q72 -52 72 -95v-7q0 -46 -64 -80v-23q-13 -72 -72 -72h-8q-19 0 -38 11q-34 -23 -57 -23h-8q-33 0 -91 54h-7q-62 -92 -107 -92h-7q-19 0 -38 12q-1 -1 -3 -2z" />
    <glyph glyph-name="Otilde" unicode="&#xd5;" horiz-adv-x="1315" 
d="M395 684v-38q0 -228 110 -327q83 0 194 95q118 202 118 350q4 0 4 34v57q0 132 -110 182q-39 31 -141 61q-34 32 -34 61h-4q-137 -163 -137 -475zM260 1360h-5q-66 0 -84 103v30l-38 -4q-72 12 -72 72v8q0 65 186 205q41 27 137 53q37 19 72 19h30q99 0 217 -110
q17 -4 53 -34h8q47 65 87 65q35 0 76 30h23q103 -17 103 -87h30q72 -12 72 -73v-7q0 -74 -213 -228q-90 -42 -129 -42h-45q-5 0 -10 1q15 -8 32 -16q139 0 316 -175q110 -159 110 -288v-118q0 -97 -61 -285q-101 -235 -289 -331q-63 -18 -171 -99q-111 -49 -171 -49h-53
q-264 0 -395 308q-76 121 -76 311v99q0 235 91 433q14 54 169 209zM365 1414q63 -3 72 -92q23 -12 23 -15q39 32 76 46q21 57 76 57q32 -2 86 -23q-59 37 -147 125q-25 19 -38 19h-11q-22 0 -103 -91q-6 0 -34 -26z" />
    <glyph glyph-name="Odieresis" unicode="&#xd6;" horiz-adv-x="1315" 
d="M395 684v-38q0 -228 110 -327q83 0 194 95q118 202 118 350q4 0 4 34v57q0 132 -110 182q-39 31 -141 61q-34 32 -34 61h-4q-137 -163 -137 -475zM865 1847h11q33 0 87 -57h23q63 0 72 -79v-23q16 -18 16 -53q-31 -149 -73 -149q-28 -76 -72 -76q-21 -30 -64 -30
q-76 9 -76 76v8q0 27 38 129q-61 47 -61 99q24 155 99 155zM386 1410q44 -15 51 -88q23 -12 23 -15q39 32 76 46q21 57 76 57q56 -3 178 -65q139 0 316 -175q110 -159 110 -288v-118q0 -97 -61 -285q-101 -235 -289 -331q-63 -18 -171 -99q-111 -49 -171 -49h-53
q-264 0 -395 308q-76 121 -76 311v99q0 235 91 433q16 60 205 244q30 17 58 19q-25 8 -44 34q-37 -38 -72 -38h-4q-76 10 -76 76v35q-15 17 -15 53v45q19 80 79 80h27v8q13 72 72 72h12q66 0 76 -91v-38l-4 -38q53 -25 53 -84v-34q0 -80 -72 -84z" />
    <glyph glyph-name="Oslash" unicode="&#xd8;" horiz-adv-x="1386" 
d="M418 1412q67 0 76 -91q23 -13 23 -15q39 31 76 45q21 57 76 57q56 -3 178 -64q23 0 88 -16q4 0 72 73q27 7 42 7q35 0 72 -38l38 4q63 0 72 -80q0 -19 -19 -57q27 -19 27 -61q0 -23 -31 -72v-4q65 -134 65 -220v-118q0 -96 -61 -285q-101 -234 -289 -330
q-63 -18 -171 -99q-111 -50 -171 -50h-53q-110 0 -209 57q-8 0 -99 -110q-27 -15 -57 -15q-32 0 -114 76q-49 25 -49 68v12q0 26 34 68v8q-15 20 -15 42v11q0 36 91 133q-53 107 -53 270v99q0 234 91 433q16 59 205 243q34 19 65 19zM456 766h11q17 24 244 293v11
q-118 23 -118 87h-4q-90 -99 -122 -292q-11 -85 -11 -99zM551 333q6 -15 11 -15q80 0 190 91q111 180 111 285h-4q-31 -27 -308 -361z" />
    <glyph glyph-name="Ugrave" unicode="&#xd9;" horiz-adv-x="1167" 
d="M996 1463q72 -16 72 -65q-20 -832 -46 -832q-42 -118 -42 -167q-30 -158 -117 -262q-123 -137 -251 -137h-61q-30 0 -122 19h-45q-190 0 -308 194q-76 156 -76 528v137q0 399 61 399q7 2 26 68q25 34 69 34q33 -3 42 -3q0 34 136 49q62 0 73 -76q-23 -231 -23 -369v-68
q0 -376 95 -471q67 -53 110 -53h4q35 0 64 163l27 718q11 30 49 57q10 91 76 91h8q34 -3 42 -3q0 34 137 49zM419 1842h7q31 0 297 -148q23 -27 23 -53v-8q-13 -72 -73 -72h-26q0 -4 57 -38q23 -27 23 -53v-8q-13 -72 -73 -72h-7q-29 0 -327 152q-86 41 -110 76
q-99 38 -99 95v8q0 50 99 106q6 4 19 4h7q14 0 107 -42h7q0 39 69 53z" />
    <glyph glyph-name="Uacute" unicode="&#xda;" horiz-adv-x="1167" 
d="M792 1415q8 2 17 2h8q34 -3 42 -3q0 34 137 49q72 -16 72 -65q-20 -832 -46 -832q-42 -118 -42 -167q-30 -158 -117 -262q-123 -137 -251 -137h-61q-30 0 -122 19h-45q-190 0 -308 194q-76 156 -76 528v137q0 399 61 399q7 2 26 68q25 34 69 34q33 -3 42 -3q0 34 135 49
q-7 16 -12 35v7q0 57 133 122q16 4 53 68q287 183 320 183h7q62 0 80 -92q46 -61 46 -87v-8q0 -26 -38 -72q7 -24 7 -34v-8q0 -56 -137 -124zM407 1350v-1q-23 -231 -23 -369v-68q0 -376 95 -471q67 -53 110 -53h4q35 0 64 163l27 718q11 30 49 57q5 45 24 68
q-143 -94 -174 -94h-7q-72 11 -72 72v8q-65 -31 -80 -31h-8q-5 0 -9 1z" />
    <glyph glyph-name="Ucircumflex" unicode="&#xdb;" horiz-adv-x="1167" 
d="M405 1361l2 -12q-23 -231 -23 -369v-68q0 -376 95 -471q67 -53 110 -53h4q35 0 64 163l27 718q11 30 49 57q10 91 76 91h8q34 -3 42 -3q0 34 137 49q72 -16 72 -65q-20 -832 -46 -832q-42 -118 -42 -167q-30 -158 -117 -262q-123 -137 -251 -137h-61q-30 0 -122 19h-45
q-190 0 -308 194q-76 156 -76 528v137q0 399 61 399q7 2 26 68q25 34 69 34q33 -3 42 -3q0 14 22 24q-3 10 -3 22v8q0 9 7 34q-7 14 -7 30v8q0 15 26 72q0 43 175 255q29 11 42 11h7q26 0 88 -45q26 15 45 15h8q38 0 171 -122q72 -52 72 -95v-7q0 -46 -64 -80v-23
q-13 -72 -73 -72h-7q-19 0 -38 11q-35 -23 -57 -23h-8q-33 0 -91 54h-8q-57 -86 -100 -92z" />
    <glyph glyph-name="Udieresis" unicode="&#xdc;" horiz-adv-x="1167" 
d="M753 1390q-39 18 -39 66v8q0 27 38 129q-60 47 -60 99q24 155 98 155h12q33 0 87 -57h23q63 0 72 -79v-23q15 -18 15 -53q-30 -149 -72 -149q-8 -22 -18 -38q33 9 87 15q72 -16 72 -65q-20 -832 -46 -832q-42 -118 -42 -167q-30 -158 -117 -262q-123 -137 -251 -137h-61
q-30 0 -122 19h-45q-190 0 -308 194q-76 156 -76 528v137q0 399 61 399q7 2 26 68q25 34 69 34q33 -3 42 -3q0 25 75 40q-21 9 -37 32q-37 -38 -73 -38h-3q-76 10 -76 76v35q-16 17 -16 53v45q19 80 80 80h27v8q13 72 72 72h11q67 0 76 -91v-38l-3 -38q53 -25 53 -84v-34
q0 -51 -30 -71q44 -11 53 -74q-23 -231 -23 -369v-68q0 -376 95 -471q67 -53 110 -53h4q35 0 64 163l27 718q11 30 49 57q5 41 20 64z" />
    <glyph glyph-name="Yacute" unicode="&#xdd;" horiz-adv-x="1270" 
d="M1060 1435q84 -9 84 -76q0 -31 -53 -133v-4q83 -9 83 -76q0 -46 -99 -201q-479 -868 -535 -954q0 -22 -122 -34h-11l-23 3q-34 -30 -72 -30q-69 0 -76 84q0 22 49 117v31q-53 22 -53 76v4q3 41 152 292v8q-346 517 -354 539q-3 15 -3 31q0 25 15 45v19q-42 52 -42 95
q0 76 106 76q0 9 35 12q32 0 76 -31q52 0 159 -186q180 -270 186 -273h4q8 2 293 513q33 34 64 34q36 0 57 -19q9 0 65 38h15zM879 1840h8q62 0 80 -92q45 -61 45 -87v-8q0 -26 -38 -72q8 -24 8 -34v-8q0 -58 -148 -129q-164 -110 -198 -110h-7q-73 11 -73 72v8
q-64 -31 -79 -31h-8q-64 0 -95 111v7q0 57 133 122q16 4 53 68q287 183 319 183z" />
    <glyph glyph-name="Thorn" unicode="&#xde;" horiz-adv-x="1305" 
d="M258 1443h8q72 -13 72 -72v-50q5 0 42 8h8q72 -13 72 -72v-23h129q176 0 331 -103q132 -45 197 -171l57 -129q15 -23 15 -110v-30q0 -131 -171 -259q-171 -115 -562 -186v-95q-11 -72 -72 -72h-8q-28 0 -57 26h-11q-27 -30 -27 -53q-11 -72 -72 -72h-8q-72 11 -72 72v148
h-23q-106 22 -106 88v7q0 61 80 76v19q0 6 -57 42q-15 26 -15 46v7q0 76 106 76v4q4 435 4 661v137q0 76 125 76q0 4 15 4zM460 865v-83q0 -59 -4 -160q8 0 8 -4q226 56 345 168q0 4 4 11q-43 80 -232 80h-7q-51 0 -114 -12z" />
    <glyph glyph-name="germandbls" unicode="&#xdf;" horiz-adv-x="1327" 
d="M528 1432h91q184 0 331 -125q106 -105 106 -209q9 0 12 -80v-42q0 -71 -34 -174q0 -22 -4 -42q138 -89 175 -175q11 -35 22 -114v-46q0 -36 -34 -106q0 -138 -42 -163q-75 -85 -174 -103q0 -15 -232 -34h-15q-80 0 -80 80v7q0 4 4 4q-4 7 -4 11q-73 -7 -103 -7h-15
q-80 0 -80 76q0 65 80 72h23q35 57 87 57h23q20 42 34 57q0 13 137 23q0 64 -186 102q-38 60 -103 69q-129 26 -129 80v15q0 65 80 72h26q28 57 84 57h30q0 32 46 80q4 38 4 57q-10 108 -61 125q-39 4 -61 4h-30q-156 -12 -156 -61v-68q0 -302 57 -772q0 -23 -30 -68
q0 -29 -8 -53q4 -33 4 -50q0 -58 -76 -68q-80 0 -80 125q-4 0 -8 27h-34q-22 -57 -72 -57h-4q-83 0 -83 163q-46 348 -46 650v61q0 287 99 353q109 51 205 111q87 79 224 79z" />
    <glyph glyph-name="agrave" unicode="&#xe0;" 
d="M513 809q-8 -21 -46 -243h118v7q-61 236 -72 236zM536 1432q43 0 80 -53q88 0 106 -126q18 -87 53 -110q15 -18 175 -577h65q83 0 83 -80q0 -17 -15 -53q23 -18 23 -57q-9 -76 -76 -76q64 -225 72 -274q-9 -76 -76 -76h-8q-69 0 -95 137q-15 57 -22 57q-16 -4 -16 -19
q8 -27 8 -46q-9 -76 -76 -76h-8q-74 0 -106 179q-9 26 -15 26h-285q-19 -182 -91 -182h-16q-28 0 -60 30h-4q-26 -38 -76 -38q-72 13 -72 73q0 30 19 140q-19 29 -19 50v41q0 10 11 46h-23q-72 13 -72 72v12q0 63 80 72h76q125 697 137 729q19 26 64 46q55 68 99 68
q0 53 80 65zM438 1842h7q31 0 297 -148q22 -27 22 -53v-8q-12 -72 -72 -72h-26q0 -4 57 -38q22 -27 22 -53v-8q-12 -72 -72 -72h-7q-29 0 -327 152q-87 41 -110 76q-99 38 -99 95v8q0 50 99 106q6 4 19 4h7q14 0 107 -42h7q0 39 69 53z" />
    <glyph glyph-name="aacute" unicode="&#xe1;" 
d="M513 809q-8 -21 -46 -243h118v7q-61 236 -72 236zM666 1366q44 -28 56 -113q18 -87 53 -110q15 -18 175 -577h65q83 0 83 -80q0 -17 -15 -53q23 -18 23 -57q-9 -76 -76 -76q64 -225 72 -274q-9 -76 -76 -76h-8q-69 0 -95 137q-15 57 -22 57q-16 -4 -16 -19q8 -27 8 -46
q-9 -76 -76 -76h-8q-74 0 -106 179q-9 26 -15 26h-285q-19 -182 -91 -182h-16q-28 0 -60 30h-4q-26 -38 -76 -38q-72 13 -72 73q0 30 19 140q-19 29 -19 50v41q0 10 11 46h-23q-72 13 -72 72v12q0 63 80 72h76q125 697 137 729q19 26 64 46q55 68 99 68q0 15 6 27
q-13 -5 -19 -5h-8q-64 0 -95 111v7q0 57 133 122q16 4 53 68q287 183 320 183h7q62 0 80 -92q46 -61 46 -87v-8q0 -26 -38 -72q7 -24 7 -34v-8q0 -58 -148 -129q-84 -57 -134 -84z" />
    <glyph glyph-name="acircumflex" unicode="&#xe2;" 
d="M536 1432q43 0 80 -53q88 0 106 -126q18 -87 53 -110q15 -18 175 -577h65q83 0 83 -80q0 -17 -15 -53q23 -18 23 -57q-9 -76 -76 -76q64 -225 72 -274q-9 -76 -76 -76h-8q-69 0 -95 137q-15 57 -22 57q-16 -4 -16 -19q8 -27 8 -46q-9 -76 -76 -76h-8q-74 0 -106 179
q-9 26 -15 26h-285q-19 -182 -91 -182h-16q-28 0 -60 30h-4q-26 -38 -76 -38q-72 13 -72 73q0 30 19 140q-19 29 -19 50v41q0 10 11 46h-23q-72 13 -72 72v12q0 63 80 72h76q125 697 137 729q19 26 64 46q55 68 99 68q0 53 80 65zM513 809q-8 -21 -46 -243h118v7
q-61 236 -72 236zM479 1860h7q26 0 88 -45q26 15 45 15h8q38 0 171 -122q72 -52 72 -95v-7q0 -46 -64 -80v-23q-13 -72 -73 -72h-7q-19 0 -38 11q-35 -23 -57 -23h-8q-33 0 -91 54h-8q-61 -92 -106 -92h-8q-18 0 -38 12q-34 -23 -57 -23h-7q-72 11 -72 72v8q0 9 7 34
q-7 14 -7 30v8q0 15 26 72q0 43 175 255q29 11 42 11z" />
    <glyph glyph-name="atilde" unicode="&#xe3;" 
d="M536 1432q43 0 80 -53q88 0 106 -126q18 -87 53 -110q15 -18 175 -577h65q83 0 83 -80q0 -17 -15 -53q23 -18 23 -57q-9 -76 -76 -76q64 -225 72 -274q-9 -76 -76 -76h-8q-69 0 -95 137q-15 57 -22 57q-16 -4 -16 -19q8 -27 8 -46q-9 -76 -76 -76h-8q-74 0 -106 179
q-9 26 -15 26h-285q-19 -182 -91 -182h-16q-28 0 -60 30h-4q-26 -38 -76 -38q-72 13 -72 73q0 30 19 140q-19 29 -19 50v41q0 10 11 46h-23q-72 13 -72 72v12q0 63 80 72h76q125 697 137 729q19 26 64 46q55 68 99 68q0 53 80 65zM513 809q-8 -21 -46 -243h118v7
q-61 236 -72 236zM401 1846h30q99 0 217 -110q17 -4 53 -34h8q47 65 87 65q35 0 76 30h23q103 -17 103 -87h30q72 -12 72 -73v-7q0 -74 -213 -228q-90 -42 -129 -42h-45q-64 0 -217 152q-25 19 -38 19h-11q-22 0 -103 -91q-9 0 -61 -53q-64 -27 -76 -27h-7q-66 0 -84 103v30
l-38 -4q-72 12 -72 72v8q0 65 186 205q41 27 137 53q37 19 72 19z" />
    <glyph glyph-name="adieresis" unicode="&#xe4;" 
d="M536 1432q43 0 80 -53q88 0 106 -126q18 -87 53 -110q15 -18 175 -577h65q83 0 83 -80q0 -17 -15 -53q23 -18 23 -57q-9 -76 -76 -76q64 -225 72 -274q-9 -76 -76 -76h-8q-69 0 -95 137q-15 57 -22 57q-16 -4 -16 -19q8 -27 8 -46q-9 -76 -76 -76h-8q-74 0 -106 179
q-9 26 -15 26h-285q-19 -182 -91 -182h-16q-28 0 -60 30h-4q-26 -38 -76 -38q-72 13 -72 73q0 30 19 140q-19 29 -19 50v41q0 10 11 46h-23q-72 13 -72 72v12q0 63 80 72h76q125 697 137 729q19 26 64 46q55 68 99 68q0 53 80 65zM513 809q-8 -21 -46 -243h118v7
q-61 236 -72 236zM809 1847h12q33 0 87 -57h23q63 0 72 -79v-23q15 -18 15 -53q-30 -149 -72 -149q-29 -76 -72 -76q-21 -30 -65 -30q-76 9 -76 76v8q0 27 38 129q-60 47 -60 99q24 155 98 155zM266 1779h11q67 0 76 -91v-38l-3 -38q53 -25 53 -84v-34q0 -84 -80 -84
q-41 0 -68 38q-37 -38 -73 -38h-3q-76 10 -76 76v35q-16 17 -16 53v45q19 80 80 80h27v8q13 72 72 72z" />
    <glyph glyph-name="aring" unicode="&#xe5;" 
d="M513 809q-8 -21 -46 -243h118v7q-61 236 -72 236zM530 1568v-8q0 -15 50 -30l15 45q-4 8 -4 12h-4q-57 -9 -57 -19zM714 1293q5 -18 8 -40q18 -87 53 -110q15 -18 175 -577h65q83 0 83 -80q0 -17 -15 -53q23 -18 23 -57q-9 -76 -76 -76q64 -225 72 -274q-9 -76 -76 -76
h-8q-69 0 -95 137q-15 57 -22 57q-16 -4 -16 -19q8 -27 8 -46q-9 -76 -76 -76h-8q-74 0 -106 179q-9 26 -15 26h-285q-19 -182 -91 -182h-16q-28 0 -60 30h-4q-26 -38 -76 -38q-72 13 -72 73q0 30 19 140q-19 29 -19 50v41q0 10 11 46h-23q-72 13 -72 72v12q0 63 80 72h76
q125 697 137 729q19 26 64 46q28 35 53 52q-19 22 -36 50q-22 0 -91 91q-19 60 -19 83v23q0 143 145 198q65 6 110 34q38 15 68 15h31q148 0 201 -137q11 -41 23 -121v-23q0 -62 -34 -129q0 -79 -94 -142z" />
    <glyph glyph-name="ae" unicode="&#xe6;" horiz-adv-x="1776" 
d="M718 1422q51 0 80 -42q71 0 597 15q47 0 87 -57h38q76 0 76 -121q0 -7 -8 -23q16 -26 16 -46v-7q0 -76 -133 -76q-104 0 -418 -12v-171q260 12 330 12q50 0 65 -72v-8q0 -41 -53 -76h45q72 -13 72 -72v-8q0 -37 -45 -72q0 -87 -99 -87q-40 -4 -274 -12v-4q0 -27 -15 -60
q23 -18 23 -57q0 -32 -27 -61v-4q278 -4 426 -4h65q76 0 76 -114q10 0 15 -38v-7q0 -65 -88 -76q-22 -42 -64 -42h-217q-76 0 -228 4q-8 -84 -68 -84h-15q-63 0 -76 84h-61q-33 -31 -61 -31h-11q-39 0 -73 50q-57 23 -57 72v7q0 37 46 73v3h-296q-56 -182 -118 -182h-15
q-28 0 -61 30h-4q-30 -38 -65 -38h-11q-72 13 -72 73v15q13 86 30 137q12 14 12 30v49q0 10 11 46h-23q-72 13 -72 72v12q13 72 72 72h110q7 3 293 722q16 30 68 53q50 65 92 65h11q0 53 72 68zM631 806q-95 -235 -95 -250h121q-15 218 -19 250h-7z" />
    <glyph glyph-name="ccedilla" unicode="&#xe7;" horiz-adv-x="1399" 
d="M463 37q-105 42 -174 134q-92 54 -122 80q-167 131 -167 471v49q0 177 80 373q33 82 152 186q125 91 300 91h34q66 0 202 -26q136 0 338 -84q33 -29 45 -84q46 -41 46 -76q0 -58 -53 -79v-19q-6 -84 -84 -84q-11 0 -178 57q-102 19 -149 19q-178 0 -277 -125
q-38 -102 -53 -282q0 -213 87 -243l38 -19q128 0 414 99h12q43 0 68 -38q26 0 122 11q54 0 80 -60q0 -28 49 -80l4 -27q0 -49 -53 -87q0 -76 -65 -99q-200 -73 -355 -90q24 -26 57 -52q121 -120 121 -247v-22q0 -107 -167 -156q-46 -118 -232 -118h-3q-240 0 -240 46
q-13 0 -19 41v8q0 27 27 57q-53 34 -53 72v8q0 75 68 110q22 46 65 46h7q56 -8 61 -8h11q-19 69 -19 91v4l4 23q-30 65 -30 110v4q0 8 1 15z" />
    <glyph glyph-name="egrave" unicode="&#xe8;" horiz-adv-x="1128" 
d="M756 1395q48 0 88 -57h38q76 0 76 -122q0 -7 -8 -23q15 -26 15 -45v-8q0 -76 -133 -76q-103 0 -418 -11v-171q261 11 331 11q49 0 64 -72v-8q0 -41 -53 -76h46q72 -12 72 -72v-8q0 -37 -46 -72q0 -87 -98 -87q-16 -4 -316 -12v-186q309 -4 483 -4h30q76 0 76 -114
q11 0 15 -38v-7q0 -65 -87 -76q-23 -42 -65 -42h-167q-102 0 -308 4q-34 -23 -57 -23h-7q-14 0 -65 23h-64q-42 15 -152 23q-46 26 -46 68v8q0 37 46 72l3 45q-7 14 -7 31v984q0 4 -8 42v7q0 76 133 76q59 0 589 16zM394 1852h8q31 0 296 -148q23 -27 23 -53v-8
q-13 -72 -72 -72h-27q0 -4 57 -38q23 -27 23 -53v-8q-13 -72 -72 -72h-8q-29 0 -327 152q-86 41 -110 76q-99 38 -99 95v8q0 50 99 106q6 4 19 4h8q13 0 106 -42h8q0 39 68 53z" />
    <glyph glyph-name="eacute" unicode="&#xe9;" horiz-adv-x="1128" 
d="M732 1394q12 1 24 1q48 0 88 -57h38q76 0 76 -122q0 -7 -8 -23q15 -26 15 -45v-8q0 -76 -133 -76q-103 0 -418 -11v-171q261 11 331 11q49 0 64 -72v-8q0 -41 -53 -76h46q72 -12 72 -72v-8q0 -37 -46 -72q0 -87 -98 -87q-16 -4 -316 -12v-186q309 -4 483 -4h30
q76 0 76 -114q11 0 15 -38v-7q0 -65 -87 -76q-23 -42 -65 -42h-167q-102 0 -308 4q-34 -23 -57 -23h-7q-14 0 -65 23h-64q-42 15 -152 23q-46 26 -46 68v8q0 37 46 72l3 45q-7 14 -7 31v984q0 4 -8 42v7q0 76 133 76q28 0 164 4q-21 27 -35 77v7q0 57 133 122q16 4 54 68
q286 183 319 183h7q63 0 80 -92q46 -61 46 -87v-8q0 -26 -38 -72q7 -24 7 -34v-8q0 -58 -148 -129z" />
    <glyph glyph-name="ecircumflex" unicode="&#xea;" horiz-adv-x="1128" 
d="M425 1385l331 10q48 0 88 -57h38q76 0 76 -122q0 -7 -8 -23q15 -26 15 -45v-8q0 -76 -133 -76q-103 0 -418 -11v-171q261 11 331 11q49 0 64 -72v-8q0 -41 -53 -76h46q72 -12 72 -72v-8q0 -37 -46 -72q0 -87 -98 -87q-16 -4 -316 -12v-186q309 -4 483 -4h30q76 0 76 -114
q11 0 15 -38v-7q0 -65 -87 -76q-23 -42 -65 -42h-167q-102 0 -308 4q-34 -23 -57 -23h-7q-14 0 -65 23h-64q-42 15 -152 23q-46 26 -46 68v8q0 37 46 72l3 45q-7 14 -7 31v984q0 4 -8 42v7q0 76 133 76q11 0 38 1q-13 16 -13 42v8q0 9 8 34q-8 14 -8 30v8q0 15 27 72
q0 43 174 255q30 11 42 11h8q25 0 87 -45q26 15 46 15h7q38 0 171 -122q73 -52 73 -95v-7q0 -46 -65 -80v-23q-13 -72 -72 -72h-8q-18 0 -38 11q-34 -23 -57 -23h-7q-34 0 -92 54h-7q-30 -45 -56 -68z" />
    <glyph glyph-name="edieresis" unicode="&#xeb;" horiz-adv-x="1128" 
d="M796 1384q25 -14 48 -46h38q76 0 76 -122q0 -7 -8 -23q15 -26 15 -45v-8q0 -76 -133 -76q-103 0 -418 -11v-171q261 11 331 11q49 0 64 -72v-8q0 -41 -53 -76h46q72 -12 72 -72v-8q0 -37 -46 -72q0 -87 -98 -87q-16 -4 -316 -12v-186q309 -4 483 -4h30q76 0 76 -114
q11 0 15 -38v-7q0 -65 -87 -76q-23 -42 -65 -42h-167q-102 0 -308 4q-34 -23 -57 -23h-7q-14 0 -65 23h-64q-42 15 -152 23q-46 26 -46 68v8q0 37 46 72l3 45q-7 14 -7 31v984q0 4 -8 42v7q0 76 133 76q57 0 554 15q-31 19 -31 62v8q0 27 38 129q-61 47 -61 99
q24 155 99 155h11q33 0 88 -57h22q63 0 73 -79v-23q15 -18 15 -53q-30 -149 -72 -149q-29 -76 -73 -76q-13 -18 -34 -26zM222 1779h12q66 0 76 -91v-38l-4 -38q53 -25 53 -84v-34q0 -84 -80 -84q-40 0 -68 38q-37 -38 -72 -38h-4q-76 10 -76 76v35q-15 17 -15 53v45
q19 80 80 80h26v8q13 72 72 72z" />
    <glyph glyph-name="igrave" unicode="&#xec;" horiz-adv-x="537" 
d="M99 1432h11q76 -15 76 -76v-12h34q23 0 73 -34h3q27 19 50 19h11q76 -16 76 -72q-11 -235 -11 -350v-292q0 -195 15 -415q0 -51 -76 -68h-23q0 -11 4 -76q0 -51 -76 -68h-11q-30 0 -57 26q-64 -34 -95 -34h-12q-73 0 -83 110q-8 260 -8 335v368q13 608 38 608
q31 31 61 31zM103 1842h8q31 0 296 -148q23 -27 23 -53v-8q-13 -72 -72 -72h-27q0 -4 57 -38q23 -27 23 -53v-8q-13 -72 -72 -72h-8q-28 0 -327 152q-86 41 -110 76q-99 38 -99 95v8q0 50 99 106q7 4 19 4h8q13 0 106 -42h8q0 39 68 53z" />
    <glyph glyph-name="iacute" unicode="&#xed;" horiz-adv-x="537" 
d="M33 1394q-16 26 -27 66v7q0 57 133 122q16 4 53 68q287 183 319 183h8q62 0 80 -92q45 -61 45 -87v-8q0 -26 -38 -72q8 -24 8 -34v-8q0 -58 -148 -129q-81 -54 -131 -82q6 1 11 1h11q76 -16 76 -72q-11 -235 -11 -350v-292q0 -195 15 -415q0 -51 -76 -68h-23q0 -11 4 -76
q0 -51 -76 -68h-11q-30 0 -57 26q-64 -34 -95 -34h-12q-73 0 -83 110q-8 260 -8 335v368q12 543 33 601zM183 1378q3 -10 3 -22v-12h7q-5 12 -5 28v8q-2 -1 -5 -2z" />
    <glyph glyph-name="icircumflex" unicode="&#xee;" horiz-adv-x="537" 
d="M160 1412q26 -20 26 -56v-12h34q23 0 73 -34h3q27 19 50 19h11q76 -16 76 -72q-11 -235 -11 -350v-292q0 -195 15 -415q0 -51 -76 -68h-23q0 -11 4 -76q0 -51 -76 -68h-11q-30 0 -57 26q-64 -34 -95 -34h-12q-73 0 -83 110q-8 260 -8 335v368q10 462 27 573
q-27 -16 -46 -16h-8q-72 11 -72 72v8q0 9 8 34q-8 14 -8 30v8q0 15 27 72q0 43 175 255q29 11 41 11h8q26 0 87 -45q26 15 46 15h8q38 0 171 -122q72 -52 72 -95v-7q0 -46 -65 -80v-23q-13 -72 -72 -72h-8q-18 0 -38 11q-34 -23 -57 -23h-7q-34 0 -91 54h-8q-16 -24 -30 -41
z" />
    <glyph glyph-name="idieresis" unicode="&#xef;" horiz-adv-x="537" 
d="M99 1432h11q76 -15 76 -76v-12h34q23 0 73 -34h3q27 19 50 19h11q76 -16 76 -72q-11 -235 -11 -350v-292q0 -195 15 -415q0 -51 -76 -68h-23q0 -11 4 -76q0 -51 -76 -68h-11q-30 0 -57 26q-64 -34 -95 -34h-12q-73 0 -83 110q-8 260 -8 335v368q13 608 38 608
q31 31 61 31zM475 1847h11q33 0 88 -57h23q63 0 72 -79v-23q15 -18 15 -53q-30 -149 -72 -149q-29 -76 -72 -76q-22 -30 -65 -30q-76 9 -76 76v8q0 27 38 129q-61 47 -61 99q24 155 99 155zM-68 1779h11q66 0 76 -91v-38l-4 -38q53 -25 53 -84v-34q0 -84 -79 -84
q-41 0 -69 38q-37 -38 -72 -38h-4q-76 10 -76 76v35q-15 17 -15 53v45q19 80 80 80h26v8q13 72 73 72z" />
    <glyph glyph-name="eth" unicode="&#xf0;" horiz-adv-x="1442" 
d="M616 1426h45q455 0 627 -349q42 -124 42 -251q0 -263 -103 -388l-148 -171q-118 -109 -273 -159q-89 -50 -198 -80l-46 -91q0 -17 -53 -27h-7q-24 0 -50 19h-30q-37 0 -72 46q-84 7 -84 53q-7 0 -23 452q-45 0 -80 42h-45q-54 0 -99 68q-15 0 -19 50q0 48 65 79
q0 42 79 57q0 42 80 57v4q0 61 -7 194h-50q-72 11 -72 72v8q0 42 38 61v11q-30 34 -34 80v7q0 71 121 84q65 8 88 8q31 64 308 64zM570 1035q0 -34 4 -164l4 -19q136 12 190 12q60 0 68 -80v-15q-9 -80 -65 -80v-8q4 -16 50 -26q38 -26 38 -69q0 -76 -122 -76
q-110 -7 -144 -7q4 -97 4 -129h3q222 0 346 243q15 51 15 68q-25 139 -95 217q-144 133 -296 133z" />
    <glyph glyph-name="ntilde" unicode="&#xf1;" horiz-adv-x="1164" 
d="M749 1361q-8 -1 -14 -1h-45q-64 0 -217 152q-25 19 -38 19h-11q-22 0 -103 -91q-9 0 -61 -53q-21 -9 -37 -15q5 -12 5 -28v-38q91 -23 91 -83v-27h8q29 27 57 27h7q55 0 118 -126q201 -307 243 -365h4q-4 66 -4 107q0 169 -3 522zM953 1470q46 -17 46 -65v-84
q44 -29 50 -60l11 -1205q-21 -61 -72 -61h-8q-23 0 -49 19h-4q-33 -34 -64 -34h-8q-72 11 -72 72v50q-410 634 -449 684h-3q0 -7 3 -46l16 -616q-21 -75 -35 -95q-48 -45 -79 -45h-8q-30 0 -61 30h-7q-27 -19 -50 -19h-7q-73 0 -73 107q-3 38 -30 1064q7 31 15 34l-4 45v61
q12 72 73 72q12 17 27 27q-12 23 -18 58v30l-38 -4q-72 12 -72 72v8q0 65 186 205q41 27 137 53q37 19 72 19h31q98 0 216 -110q17 -4 53 -34h8q47 65 87 65q35 0 76 30h23q103 -17 103 -87h30q72 -12 72 -73v-7q0 -57 -124 -160z" />
    <glyph glyph-name="ograve" unicode="&#xf2;" horiz-adv-x="1315" 
d="M361 1414q67 0 76 -92q23 -12 23 -15q39 32 76 46q21 57 76 57q56 -3 178 -65q139 0 316 -175q110 -159 110 -288v-118q0 -97 -61 -285q-101 -235 -289 -331q-63 -18 -171 -99q-111 -49 -171 -49h-53q-264 0 -395 308q-76 121 -76 311v99q0 235 91 433q16 60 205 244
q34 19 65 19zM395 684v-38q0 -228 110 -327q83 0 194 95q118 202 118 350q4 0 4 34v57q0 132 -110 182q-39 31 -141 61q-34 32 -34 61h-4q-137 -163 -137 -475zM493 1842h7q31 0 297 -148q23 -27 23 -53v-8q-13 -72 -73 -72h-26q0 -4 57 -38q23 -27 23 -53v-8
q-13 -72 -73 -72h-7q-29 0 -327 152q-86 41 -110 76q-99 38 -99 95v8q0 50 99 106q6 4 19 4h7q14 0 107 -42h7q0 39 69 53z" />
    <glyph glyph-name="oacute" unicode="&#xf3;" horiz-adv-x="1315" 
d="M395 684v-38q0 -228 110 -327q83 0 194 95q118 202 118 350q4 0 4 34v57q0 132 -110 182q-39 31 -141 61q-34 32 -34 61h-4q-137 -163 -137 -475zM770 1355l20 -10q139 0 316 -175q110 -159 110 -288v-118q0 -97 -61 -285q-101 -235 -289 -331q-63 -18 -171 -99
q-111 -49 -171 -49h-53q-264 0 -395 308q-76 121 -76 311v99q0 235 91 433q16 60 205 244q34 19 65 19q67 0 76 -92q23 -12 23 -15q39 32 76 46l4 10q-32 -14 -42 -14h-8q-64 0 -95 111v7q0 57 133 122q16 4 53 68q287 183 320 183h7q62 0 80 -92q46 -61 46 -87v-8
q0 -26 -38 -72q7 -24 7 -34v-8q0 -58 -148 -129z" />
    <glyph glyph-name="ocircumflex" unicode="&#xf4;" horiz-adv-x="1315" 
d="M395 684v-38q0 -228 110 -327q83 0 194 95q118 202 118 350q4 0 4 34v57q0 132 -110 182q-39 31 -141 61q-34 32 -34 61h-4q-137 -163 -137 -475zM425 1371q9 -20 12 -49q23 -12 23 -15q39 32 76 46q21 57 76 57q56 -3 178 -65q139 0 316 -175q110 -159 110 -288v-118
q0 -97 -61 -285q-101 -235 -289 -331q-63 -18 -171 -99q-111 -49 -171 -49h-53q-264 0 -395 308q-76 121 -76 311v99q0 235 91 433q16 60 205 244q-5 12 -5 27v8q0 9 7 34q-7 14 -7 30v8q0 15 26 72q0 43 175 255q29 11 42 11h8q25 0 87 -45q26 15 46 15h7q38 0 171 -122
q72 -52 72 -95v-7q0 -46 -64 -80v-23q-13 -72 -72 -72h-8q-19 0 -38 11q-34 -23 -57 -23h-8q-33 0 -91 54h-7q-62 -92 -107 -92h-7q-19 0 -38 12q-1 -1 -3 -2z" />
    <glyph glyph-name="otilde" unicode="&#xf5;" horiz-adv-x="1315" 
d="M395 684v-38q0 -228 110 -327q83 0 194 95q118 202 118 350q4 0 4 34v57q0 132 -110 182q-39 31 -141 61q-34 32 -34 61h-4q-137 -163 -137 -475zM260 1360h-5q-66 0 -84 103v30l-38 -4q-72 12 -72 72v8q0 65 186 205q41 27 137 53q37 19 72 19h30q99 0 217 -110
q17 -4 53 -34h8q47 65 87 65q35 0 76 30h23q103 -17 103 -87h30q72 -12 72 -73v-7q0 -74 -213 -228q-90 -42 -129 -42h-45q-5 0 -10 1q15 -8 32 -16q139 0 316 -175q110 -159 110 -288v-118q0 -97 -61 -285q-101 -235 -289 -331q-63 -18 -171 -99q-111 -49 -171 -49h-53
q-264 0 -395 308q-76 121 -76 311v99q0 235 91 433q14 54 169 209zM365 1414q63 -3 72 -92q23 -12 23 -15q39 32 76 46q21 57 76 57q32 -2 86 -23q-59 37 -147 125q-25 19 -38 19h-11q-22 0 -103 -91q-6 0 -34 -26z" />
    <glyph glyph-name="odieresis" unicode="&#xf6;" horiz-adv-x="1315" 
d="M395 684v-38q0 -228 110 -327q83 0 194 95q118 202 118 350q4 0 4 34v57q0 132 -110 182q-39 31 -141 61q-34 32 -34 61h-4q-137 -163 -137 -475zM865 1847h11q33 0 87 -57h23q63 0 72 -79v-23q16 -18 16 -53q-31 -149 -73 -149q-28 -76 -72 -76q-21 -30 -64 -30
q-76 9 -76 76v8q0 27 38 129q-61 47 -61 99q24 155 99 155zM386 1410q44 -15 51 -88q23 -12 23 -15q39 32 76 46q21 57 76 57q56 -3 178 -65q139 0 316 -175q110 -159 110 -288v-118q0 -97 -61 -285q-101 -235 -289 -331q-63 -18 -171 -99q-111 -49 -171 -49h-53
q-264 0 -395 308q-76 121 -76 311v99q0 235 91 433q16 60 205 244q30 17 58 19q-25 8 -44 34q-37 -38 -72 -38h-4q-76 10 -76 76v35q-15 17 -15 53v45q19 80 79 80h27v8q13 72 72 72h12q66 0 76 -91v-38l-4 -38q53 -25 53 -84v-34q0 -80 -72 -84z" />
    <glyph glyph-name="oslash" unicode="&#xf8;" horiz-adv-x="1386" 
d="M418 1412q67 0 76 -91q23 -13 23 -15q39 31 76 45q21 57 76 57q56 -3 178 -64q23 0 88 -16q4 0 72 73q27 7 42 7q35 0 72 -38l38 4q63 0 72 -80q0 -19 -19 -57q27 -19 27 -61q0 -23 -31 -72v-4q65 -134 65 -220v-118q0 -96 -61 -285q-101 -234 -289 -330
q-63 -18 -171 -99q-111 -50 -171 -50h-53q-110 0 -209 57q-8 0 -99 -110q-27 -15 -57 -15q-32 0 -114 76q-49 25 -49 68v12q0 26 34 68v8q-15 20 -15 42v11q0 36 91 133q-53 107 -53 270v99q0 234 91 433q16 59 205 243q34 19 65 19zM456 766h11q17 24 244 293v11
q-118 23 -118 87h-4q-90 -99 -122 -292q-11 -85 -11 -99zM551 333q6 -15 11 -15q80 0 190 91q111 180 111 285h-4q-31 -27 -308 -361z" />
    <glyph glyph-name="ugrave" unicode="&#xf9;" horiz-adv-x="1167" 
d="M996 1463q72 -16 72 -65q-20 -832 -46 -832q-42 -118 -42 -167q-30 -158 -117 -262q-123 -137 -251 -137h-61q-30 0 -122 19h-45q-190 0 -308 194q-76 156 -76 528v137q0 399 61 399q7 2 26 68q25 34 69 34q33 -3 42 -3q0 34 136 49q62 0 73 -76q-23 -231 -23 -369v-68
q0 -376 95 -471q67 -53 110 -53h4q35 0 64 163l27 718q11 30 49 57q10 91 76 91h8q34 -3 42 -3q0 34 137 49zM419 1842h7q31 0 297 -148q22 -27 22 -53v-8q-12 -72 -72 -72h-26q0 -4 57 -38q22 -27 22 -53v-8q-12 -72 -72 -72h-7q-29 0 -327 152q-87 41 -110 76
q-99 38 -99 95v8q0 50 99 106q6 4 19 4h7q14 0 107 -42h7q0 39 69 53z" />
    <glyph glyph-name="uacute" unicode="&#xfa;" horiz-adv-x="1167" 
d="M792 1415q8 2 17 2h8q34 -3 42 -3q0 34 137 49q72 -16 72 -65q-20 -832 -46 -832q-42 -118 -42 -167q-30 -158 -117 -262q-123 -137 -251 -137h-61q-30 0 -122 19h-45q-190 0 -308 194q-76 156 -76 528v137q0 399 61 399q7 2 26 68q25 34 69 34q33 -3 42 -3q0 34 135 49
q-7 16 -12 35v7q0 57 133 122q16 4 53 68q287 183 320 183h7q62 0 80 -92q46 -61 46 -87v-8q0 -26 -38 -72q7 -24 7 -34v-8q0 -56 -137 -124zM407 1350v-1q-23 -231 -23 -369v-68q0 -376 95 -471q67 -53 110 -53h4q35 0 64 163l27 718q11 30 49 57q5 45 24 68
q-143 -94 -174 -94h-7q-72 11 -72 72v8q-65 -31 -80 -31h-8q-5 0 -9 1z" />
    <glyph glyph-name="ucircumflex" unicode="&#xfb;" horiz-adv-x="1167" 
d="M405 1361l2 -12q-23 -231 -23 -369v-68q0 -376 95 -471q67 -53 110 -53h4q35 0 64 163l27 718q11 30 49 57q10 91 76 91h8q34 -3 42 -3q0 34 137 49q72 -16 72 -65q-20 -832 -46 -832q-42 -118 -42 -167q-30 -158 -117 -262q-123 -137 -251 -137h-61q-30 0 -122 19h-45
q-190 0 -308 194q-76 156 -76 528v137q0 399 61 399q7 2 26 68q25 34 69 34q33 -3 42 -3q0 14 22 24q-3 10 -3 22v8q0 9 7 34q-7 14 -7 30v8q0 15 26 72q0 43 175 255q29 11 42 11h7q26 0 88 -45q26 15 45 15h8q38 0 171 -122q72 -52 72 -95v-7q0 -46 -64 -80v-23
q-13 -72 -73 -72h-7q-19 0 -38 11q-35 -23 -57 -23h-8q-33 0 -91 54h-8q-57 -86 -100 -92z" />
    <glyph glyph-name="udieresis" unicode="&#xfc;" horiz-adv-x="1167" 
d="M753 1390q-39 18 -39 66v8q0 27 38 129q-60 47 -60 99q24 155 98 155h12q33 0 87 -57h23q63 0 72 -79v-23q15 -18 15 -53q-30 -149 -72 -149q-8 -22 -18 -38q33 9 87 15q72 -16 72 -65q-20 -832 -46 -832q-42 -118 -42 -167q-30 -158 -117 -262q-123 -137 -251 -137h-61
q-30 0 -122 19h-45q-190 0 -308 194q-76 156 -76 528v137q0 399 61 399q7 2 26 68q25 34 69 34q33 -3 42 -3q0 25 75 40q-21 9 -37 32q-37 -38 -73 -38h-3q-76 10 -76 76v35q-16 17 -16 53v45q19 80 80 80h27v8q13 72 72 72h11q67 0 76 -91v-38l-3 -38q53 -25 53 -84v-34
q0 -51 -30 -71q44 -11 53 -74q-23 -231 -23 -369v-68q0 -376 95 -471q67 -53 110 -53h4q35 0 64 163l27 718q11 30 49 57q5 41 20 64z" />
    <glyph glyph-name="yacute" unicode="&#xfd;" horiz-adv-x="1270" 
d="M1060 1435q84 -9 84 -76q0 -31 -53 -133v-4q83 -9 83 -76q0 -46 -99 -201q-479 -868 -535 -954q0 -22 -122 -34h-11l-23 3q-34 -30 -72 -30q-69 0 -76 84q0 22 49 117v31q-53 22 -53 76v4q3 41 152 292v8q-346 517 -354 539q-3 15 -3 31q0 25 15 45v19q-42 52 -42 95
q0 76 106 76q0 9 35 12q32 0 76 -31q52 0 159 -186q180 -270 186 -273h4q8 2 293 513q33 34 64 34q36 0 57 -19q9 0 65 38h15zM880 1840h7q62 0 80 -92q46 -61 46 -87v-8q0 -26 -38 -72q7 -24 7 -34v-8q0 -58 -148 -129q-164 -110 -197 -110h-8q-72 11 -72 72v8
q-65 -31 -80 -31h-8q-64 0 -95 111v7q0 57 133 122q16 4 54 68q286 183 319 183z" />
    <glyph glyph-name="thorn" unicode="&#xfe;" horiz-adv-x="1305" 
d="M258 1443h8q72 -13 72 -72v-50q5 0 42 8h8q72 -13 72 -72v-23h129q176 0 331 -103q132 -45 197 -171l57 -129q15 -23 15 -110v-30q0 -131 -171 -259q-171 -115 -562 -186v-95q-11 -72 -72 -72h-8q-28 0 -57 26h-11q-27 -30 -27 -53q-11 -72 -72 -72h-8q-72 11 -72 72v148
h-23q-106 22 -106 88v7q0 61 80 76v19q0 6 -57 42q-15 26 -15 46v7q0 76 106 76v4q4 435 4 661v137q0 76 125 76q0 4 15 4zM460 865v-83q0 -59 -4 -160q8 0 8 -4q226 56 345 168q0 4 4 11q-43 80 -232 80h-7q-51 0 -114 -12z" />
    <glyph glyph-name="ydieresis" unicode="&#xff;" horiz-adv-x="1270" 
d="M931 1416q30 -2 49 -19q9 0 65 38h15q84 -9 84 -76q0 -31 -53 -133v-4q83 -9 83 -76q0 -46 -99 -201q-479 -868 -535 -954q0 -22 -122 -34h-11l-23 3q-34 -30 -72 -30q-69 0 -76 84q0 22 49 117v31q-53 22 -53 76v4q3 41 152 292v8q-346 517 -354 539q-3 15 -3 31
q0 25 15 45v19q-42 52 -42 95q0 76 106 76q0 9 35 12q32 0 76 -31q52 0 159 -186q180 -270 186 -273h4q8 2 292 512q-6 -1 -14 -1q-76 9 -76 76v8q0 27 38 129q-61 47 -61 99q24 155 99 155h11q33 0 87 -57h23q63 0 72 -79v-23q16 -18 16 -53q-31 -149 -73 -149
q-20 -55 -49 -70zM300 1779h12q66 0 76 -91v-38l-4 -38q53 -25 53 -84v-34q0 -84 -80 -84q-40 0 -68 38q-37 -38 -72 -38h-4q-76 10 -76 76v35q-15 17 -15 53v45q19 80 79 80h27v8q13 72 72 72z" />
    <glyph glyph-name="dotlessi" unicode="&#x131;" horiz-adv-x="537" 
d="M99 1432h11q76 -15 76 -76v-12h34q23 0 73 -34h3q27 19 50 19h11q76 -16 76 -72q-11 -235 -11 -350v-292q0 -195 15 -415q0 -51 -76 -68h-23q0 -11 4 -76q0 -51 -76 -68h-11q-30 0 -57 26q-64 -34 -95 -34h-12q-73 0 -83 110q-8 260 -8 335v368q13 608 38 608
q31 31 61 31z" />
    <glyph glyph-name="circumflex" unicode="&#x2c6;" horiz-adv-x="745" 
d="M243 1430h8q26 0 87 -45q26 15 46 15h7q39 0 171 -122q73 -52 73 -95v-7q0 -46 -65 -80v-23q-13 -72 -72 -72h-8q-18 0 -38 11q-34 -23 -57 -23h-7q-34 0 -92 54h-7q-62 -92 -107 -92h-7q-19 0 -38 12q-35 -23 -57 -23h-8q-72 11 -72 72v8q0 9 8 34q-8 14 -8 30v8
q0 15 27 72q0 43 174 255q30 11 42 11z" />
    <glyph glyph-name="ring" unicode="&#x2da;" horiz-adv-x="691" 
d="M323 1435h30q149 0 202 -137q11 -41 23 -121v-23q0 -62 -35 -129q0 -95 -136 -167q-35 -8 -50 -8h-23q-137 0 -224 141q-22 0 -91 91q-19 60 -19 83v23q0 143 144 198q66 6 111 34q38 15 68 15zM266 1158v-8q0 -15 49 -30l16 45q-4 8 -4 12h-4q-57 -9 -57 -19z" />
    <glyph glyph-name="tilde" unicode="&#x2dc;" horiz-adv-x="1197" 
d="M395 1436h31q98 0 216 -110q17 -4 53 -34h8q47 65 87 65q35 0 76 30h23q103 -17 103 -87h30q72 -12 72 -73v-7q0 -74 -212 -228q-91 -42 -130 -42h-45q-64 0 -217 152q-24 19 -38 19h-11q-22 0 -103 -91q-9 0 -61 -53q-64 -27 -76 -27h-7q-65 0 -84 103v30l-38 -4
q-72 12 -72 72v8q0 65 186 205q41 27 137 53q37 19 72 19z" />
    <glyph glyph-name="endash" unicode="&#x2013;" horiz-adv-x="1409" 
d="M270 888q200 0 931 -4q125 0 125 -76v-8q0 -37 -38 -64q38 -37 38 -69v-7q-11 -72 -72 -72h-194q-4 0 -42 -8q-836 4 -953 4q-50 0 -65 72v8q0 63 95 83h57v4q-11 36 -11 46v7q0 76 102 76q0 7 27 8z" />
    <glyph glyph-name="emdash" unicode="&#x2014;" horiz-adv-x="1710" 
d="M270 868q1008 -4 1208 -4q126 0 126 -76v-8q0 -37 -38 -64q38 -37 38 -69v-7q-12 -72 -73 -72h-193q-5 0 -42 -8q-1021 4 -1231 4q-50 0 -65 72v8q0 63 95 83h57v4q-11 36 -11 46v7q0 76 102 76q0 7 27 8z" />
    <glyph glyph-name="quoteleft" unicode="&#x2018;" horiz-adv-x="458" 
d="M156 1431q66 -10 72 -19h11q23 19 54 19q72 0 72 -103q4 -84 7 -357q0 -56 -79 -65h-12v-42q0 -79 -76 -79q-11 0 -49 11q-7 -76 -76 -76q-72 0 -72 103q-4 84 -8 357q19 51 19 53v91q12 91 91 91q11 16 46 16z" />
    <glyph glyph-name="quoteright" unicode="&#x2019;" horiz-adv-x="458" 
d="M156 1431q66 -10 72 -19h11q23 19 54 19q72 0 72 -103q4 -84 7 -357q0 -56 -79 -65h-12v-42q0 -79 -76 -79q-11 0 -49 11q-7 -76 -76 -76q-72 0 -72 103q-4 84 -8 357q19 51 19 53v91q12 91 91 91q11 16 46 16z" />
    <glyph glyph-name="quotesinglbase" unicode="&#x201a;" horiz-adv-x="486" 
d="M156 401q66 -10 72 -19h11q23 19 54 19q72 0 72 -103q4 -84 7 -357q0 -56 -79 -65h-12v-42q0 -79 -76 -79q-11 0 -49 11q-7 -76 -76 -76q-72 0 -72 103q-4 84 -8 357q19 51 19 53v91q12 91 91 91q11 16 46 16z" />
    <glyph glyph-name="quotedblleft" unicode="&#x201c;" horiz-adv-x="989" 
d="M156 1431q66 -10 72 -19h11q23 19 54 19q72 0 72 -103q4 -84 7 -357q0 -56 -79 -65h-12v-42q0 -79 -76 -79q-11 0 -49 11q-7 -76 -76 -76q-72 0 -72 103q-4 84 -8 357q19 51 19 53v91q12 91 91 91q11 16 46 16zM656 1431q66 -10 72 -19h11q23 19 54 19q72 0 72 -103
q4 -84 7 -357q0 -56 -79 -65h-12v-42q0 -79 -76 -79q-11 0 -49 11q-7 -76 -76 -76q-72 0 -72 103q-4 84 -8 357q19 51 19 53v91q12 91 91 91q11 16 46 16z" />
    <glyph glyph-name="quotedblright" unicode="&#x201d;" horiz-adv-x="989" 
d="M156 1431q66 -10 72 -19h11q23 19 54 19q72 0 72 -103q4 -84 7 -357q0 -56 -79 -65h-12v-42q0 -79 -76 -79q-11 0 -49 11q-7 -76 -76 -76q-72 0 -72 103q-4 84 -8 357q19 51 19 53v91q12 91 91 91q11 16 46 16zM656 1431q66 -10 72 -19h11q23 19 54 19q72 0 72 -103
q4 -84 7 -357q0 -56 -79 -65h-12v-42q0 -79 -76 -79q-11 0 -49 11q-7 -76 -76 -76q-72 0 -72 103q-4 84 -8 357q19 51 19 53v91q12 91 91 91q11 16 46 16z" />
    <glyph glyph-name="quotedblbase" unicode="&#x201e;" horiz-adv-x="989" 
d="M156 401q66 -10 72 -19h11q23 19 54 19q72 0 72 -103q4 -84 7 -357q0 -56 -79 -65h-12v-42q0 -79 -76 -79q-11 0 -49 11q-7 -76 -76 -76q-72 0 -72 103q-4 84 -8 357q19 51 19 53v91q12 91 91 91q11 16 46 16zM656 401q66 -10 72 -19h11q23 19 54 19q72 0 72 -103
q4 -84 7 -357q0 -56 -79 -65h-12v-42q0 -79 -76 -79q-11 0 -49 11q-7 -76 -76 -76q-72 0 -72 103q-4 84 -8 357q19 51 19 53v91q12 91 91 91q11 16 46 16z" />
    <glyph glyph-name="bullet" unicode="&#x2022;" horiz-adv-x="802" 
d="M418 1121h8q72 -13 72 -72v-8q0 -4 -8 -42q66 0 126 -178q3 -20 3 -46v-30q46 -91 46 -152v-19q0 -101 -129 -148q-38 -46 -126 -46h-49q-99 0 -167 76h-4q-150 0 -186 137q-4 13 -4 38q8 139 61 235q98 175 159 175h8q31 0 65 -34q47 63 83 103q29 11 42 11z" />
    <glyph glyph-name="ellipsis" unicode="&#x2026;" horiz-adv-x="1222" 
d="M141 328q53 0 72 -53h15q84 0 84 -83v-57q0 -38 -23 -65v-87q0 -67 -72 -92q0 -9 -46 -11q-72 13 -72 72v53h-27q-72 13 -72 73v68q0 59 57 133q39 49 84 49zM541 328q53 0 72 -53h15q84 0 84 -83v-57q0 -38 -23 -65v-87q0 -67 -72 -92q0 -9 -46 -11q-72 13 -72 72v53
h-27q-72 13 -72 73v68q0 59 57 133q39 49 84 49zM941 328q53 0 72 -53h15q84 0 84 -83v-57q0 -38 -23 -65v-87q0 -67 -72 -92q0 -9 -46 -11q-72 13 -72 72v53h-27q-72 13 -72 73v68q0 59 57 133q39 49 84 49z" />
    <glyph glyph-name="guilsinglleft" unicode="&#x2039;" horiz-adv-x="697" 
d="M388 1273h7q72 -13 72 -72v-27q0 -16 69 -27q38 -29 38 -64v-8q0 -35 -167 -262q-12 -14 -12 -27q171 -300 171 -326v-8q-11 -72 -72 -72h-27q-28 -80 -83 -80h-8q-31 0 -64 34q-37 -7 -42 -7h-8q-58 0 -118 136q-136 231 -144 278v7q0 31 72 130q0 59 95 171
q86 142 148 193q54 31 73 31z" />
    <glyph glyph-name="guilsinglright" unicode="&#x203a;" horiz-adv-x="685" 
d="M186 1273q18 0 72 -31q62 -51 149 -193q95 -112 95 -171q72 -99 72 -130v-7q-9 -47 -145 -278q-59 -136 -117 -136h-8q-5 0 -42 7q-33 -34 -64 -34h-8q-55 0 -84 80h-26q-61 0 -72 72v8q0 26 171 326q0 13 -12 27q-167 227 -167 262v8q0 35 38 64q68 11 68 27v27
q0 59 73 72h7z" />
    <glyph glyph-name="Euro" unicode="&#x20ac;" horiz-adv-x="1493" 
d="M1148 1444h30q60 0 84 -60q0 -14 22 -65v-8q0 -70 -34 -106v-8h8q83 -8 83 -76q0 -83 -102 -83q-192 0 -369 -99v-11q167 -4 247 -4h38q84 -9 84 -76q-6 -84 -84 -84h-102v-23q0 -48 -31 -83v-8h61q84 -9 84 -76q-6 -83 -84 -83h-57q-97 0 -274 3v-11q206 -106 487 -106
q40 -27 53 -88q15 -15 15 -42q0 -70 -34 -106v-8h8q83 -8 83 -76q0 -83 -102 -83q-71 -4 -126 -4q-287 0 -562 167q-160 141 -186 278q0 33 -46 83h-80q-83 5 -83 84q0 30 22 53v8h-60q-84 6 -84 79q4 34 4 42q-61 22 -61 84q0 83 163 83h122q6 3 42 118q32 87 148 202
q137 112 312 155q231 38 361 38z" />
    <glyph glyph-name="OE" unicode="&#x152;" horiz-adv-x="1906" 
d="M361 1414q67 0 76 -92q23 -12 23 -15q39 32 76 46q21 57 76 57q56 -3 178 -65q25 0 50 -7q11 41 148 41l566 16q48 0 88 -57h38q76 0 76 -122q0 -7 -8 -23q15 -26 15 -45v-8q0 -76 -133 -76q-103 0 -418 -11v-107q0 -20 4 -64q257 11 327 11q49 0 64 -72v-8
q0 -41 -53 -76h46q72 -12 72 -72v-8q0 -37 -46 -72q0 -87 -98 -87q-16 -4 -316 -12v-186q309 -4 483 -4h30q76 0 76 -114q11 0 15 -38v-7q0 -65 -87 -76q-23 -42 -65 -42h-167q-102 0 -308 4q-34 -23 -57 -23h-7q-14 0 -65 23h-64q-42 15 -152 23q-50 33 -50 72
q-157 -118 -270 -118h-53q-264 0 -395 308q-76 121 -76 311v99q0 235 91 433q16 60 205 244q34 19 65 19zM395 684v-38q0 -228 110 -327q83 0 194 95q118 202 118 350q4 0 4 34v57q0 132 -110 182q-39 31 -141 61q-34 32 -34 61h-4q-137 -163 -137 -475z" />
    <glyph glyph-name="oe" unicode="&#x153;" horiz-adv-x="1906" 
d="M361 1414q67 0 76 -92q23 -12 23 -15q39 32 76 46q21 57 76 57q56 -3 178 -65q25 0 50 -7q11 41 148 41l566 16q48 0 88 -57h38q76 0 76 -122q0 -7 -8 -23q15 -26 15 -45v-8q0 -76 -133 -76q-103 0 -418 -11v-107q0 -20 4 -64q257 11 327 11q49 0 64 -72v-8
q0 -41 -53 -76h46q72 -12 72 -72v-8q0 -37 -46 -72q0 -87 -98 -87q-16 -4 -316 -12v-186q309 -4 483 -4h30q76 0 76 -114q11 0 15 -38v-7q0 -65 -87 -76q-23 -42 -65 -42h-167q-102 0 -308 4q-34 -23 -57 -23h-7q-14 0 -65 23h-64q-42 15 -152 23q-50 33 -50 72
q-157 -118 -270 -118h-53q-264 0 -395 308q-76 121 -76 311v99q0 235 91 433q16 60 205 244q34 19 65 19zM395 684v-38q0 -228 110 -327q83 0 194 95q118 202 118 350q4 0 4 34v57q0 132 -110 182q-39 31 -141 61q-34 32 -34 61h-4q-137 -163 -137 -475z" />
    <glyph glyph-name="Ydieresis" unicode="&#x178;" horiz-adv-x="1270" 
d="M931 1416q30 -2 49 -19q9 0 65 38h15q84 -9 84 -76q0 -31 -53 -133v-4q83 -9 83 -76q0 -46 -99 -201q-479 -868 -535 -954q0 -22 -122 -34h-11l-23 3q-34 -30 -72 -30q-69 0 -76 84q0 22 49 117v31q-53 22 -53 76v4q3 41 152 292v8q-346 517 -354 539q-3 15 -3 31
q0 25 15 45v19q-42 52 -42 95q0 76 106 76q0 9 35 12q32 0 76 -31q52 0 159 -186q180 -270 186 -273h4q8 2 292 512q-6 -1 -14 -1q-76 9 -76 76v8q0 27 38 129q-61 47 -61 99q24 155 99 155h11q33 0 87 -57h23q63 0 72 -79v-23q16 -18 16 -53q-31 -149 -73 -149
q-20 -55 -49 -70zM300 1779h12q66 0 76 -91v-38l-4 -38q53 -25 53 -84v-34q0 -84 -80 -84q-40 0 -68 38q-37 -38 -72 -38h-4q-76 10 -76 76v35q-15 17 -15 53v45q19 80 79 80h27v8q13 72 72 72z" />
  </font>
</defs>
</svg>
